/* XPM */
static char * b_xpm[] = {
"40 40 230 2",
"  	c None",
". 	c #29E52C",
"+ 	c #7471A3",
"@ 	c #484E95",
"# 	c #25328C",
"$ 	c #0F2185",
"% 	c #031781",
"& 	c #24328C",
"* 	c #464D96",
"= 	c #7573A5",
"- 	c #6A6AA1",
"; 	c #1D2C89",
"> 	c #011580",
", 	c #021781",
"' 	c #122385",
") 	c #2D3A8F",
"! 	c #5B5D9B",
"~ 	c #5B5F9D",
"{ 	c #484F97",
"] 	c #2C388D",
"^ 	c #1F2E8A",
"/ 	c #6C6EA5",
"( 	c #5D609E",
"_ 	c #0B1E83",
": 	c #26338B",
"< 	c #6A699F",
"[ 	c #AA9DB5",
"} 	c #D2BEC3",
"| 	c #E3CAC5",
"1 	c #E4CAC5",
"2 	c #E4CBC7",
"3 	c #E4CCC8",
"4 	c #E4CCC9",
"5 	c #E2C8C3",
"6 	c #ACA0B8",
"7 	c #182887",
"8 	c #011680",
"9 	c #394291",
"0 	c #A297B3",
"a 	c #D9C2C2",
"b 	c #E3C9C4",
"c 	c #E4CBC6",
"d 	c #E5CBC7",
"e 	c #E2C8C4",
"f 	c #E4C9C5",
"g 	c #E2CAC6",
"h 	c #E6D0CD",
"i 	c #E3CBC6",
"j 	c #DAC4C5",
"k 	c #3A4492",
"l 	c #162787",
"m 	c #5C5E9C",
"n 	c #041881",
"o 	c #1C2B89",
"p 	c #9A91B0",
"q 	c #E0C6C2",
"r 	c #E4CECA",
"s 	c #E4CFCB",
"t 	c #E5CDC9",
"u 	c #E3CBC7",
"v 	c #E3CAC4",
"w 	c #E3C9C5",
"x 	c #E4CAC6",
"y 	c #E2C9C4",
"z 	c #E6D1CE",
"A 	c #E5CCC8",
"B 	c #E5D0CD",
"C 	c #DEC6C4",
"D 	c #9C93B2",
"E 	c #1C2B88",
"F 	c #434A95",
"G 	c #505599",
"H 	c #E5D0CE",
"I 	c #E5D1CE",
"J 	c #E6D3D1",
"K 	c #E4CECB",
"L 	c #E2C7C2",
"M 	c #E3C8C3",
"N 	c #E3CCC8",
"O 	c #E4CDC9",
"P 	c #E5CECA",
"Q 	c #E5CFCB",
"R 	c #D1BBBE",
"S 	c #424A95",
"T 	c #061A82",
"U 	c #DEC5C2",
"V 	c #E6D2CF",
"W 	c #E5D2D0",
"X 	c #E6D4D1",
"Y 	c #E5D1CF",
"Z 	c #E3CAC6",
"` 	c #E1C6C1",
" .	c #E3C9C3",
"..	c #E0C5C0",
"+.	c #E2C6C0",
"@.	c #E3CBC8",
"#.	c #E3CCC9",
"$.	c #DEC1BD",
"%.	c #021681",
"&.	c #E1C8C4",
"*.	c #E1C7C2",
"=.	c #E4CFCC",
"-.	c #E4D0CD",
";.	c #E1C4BE",
">.	c #E3C6C1",
",.	c #E1C5C0",
"'.	c #E3CDC9",
").	c #E2C9C5",
"!.	c #E5D1CD",
"~.	c #B2A6BC",
"{.	c #E2CDCB",
"].	c #E3C7C1",
"^.	c #E2C7C1",
"/.	c #E3CDCA",
"(.	c #BFAEBB",
"_.	c #E1C8C5",
":.	c #DBC9CB",
"<.	c #E4C9C4",
"[.	c #E2CAC7",
"}.	c #7575A7",
"|.	c #071A82",
"1.	c #001580",
"2.	c #DDC3BF",
"3.	c #E1C5BF",
"4.	c #E4CDCA",
"5.	c #7C78A6",
"6.	c #545799",
"7.	c #C1B1BF",
"8.	c #E4D0CE",
"9.	c #E5D0CC",
"0.	c #837EAA",
"a.	c #23318B",
"b.	c #172887",
"c.	c #61639E",
"d.	c #C6B1B9",
"e.	c #E1CCC9",
"f.	c #DAC6C7",
"g.	c #0D2084",
"h.	c #CAB8C1",
"i.	c #D4C2C7",
"j.	c #414994",
"k.	c #0C1E84",
"l.	c #B9ABBC",
"m.	c #B6A5B6",
"n.	c #C9B5BC",
"o.	c #0B1E84",
"p.	c #6968A0",
"q.	c #6C6BA1",
"r.	c #E2CAC5",
"s.	c #DFC7C4",
"t.	c #353F90",
"u.	c #DAC0BE",
"v.	c #0A1D83",
"w.	c #948DB0",
"x.	c #DFC9C8",
"y.	c #9389AB",
"z.	c #DDC9C9",
"A.	c #27348C",
"B.	c #B8A9BA",
"C.	c #8E87AD",
"D.	c #323D8F",
"E.	c #B1A2B6",
"F.	c #4E5397",
"G.	c #E1C9C7",
"H.	c #595D9C",
"I.	c #4A5096",
"J.	c #DFC4BE",
"K.	c #E3C8C2",
"L.	c #585B9A",
"M.	c #E6D6D4",
"N.	c #112385",
"O.	c #CFB9BD",
"P.	c #E3CDCB",
"Q.	c #65669F",
"R.	c #E2C6C1",
"S.	c #E2CBC8",
"T.	c #122486",
"U.	c #E2CCC9",
"V.	c #6768A1",
"W.	c #E3CAC7",
"X.	c #DFC3BD",
"Y.	c #E4D3D0",
"Z.	c #E2CCC7",
"`.	c #AF9DB1",
" +	c #BEA9B5",
".+	c #081B82",
"++	c #DFC2BC",
"@+	c #BFACB8",
"#+	c #414893",
"$+	c #E4D2D0",
"%+	c #E3CECA",
"&+	c #E4D1CE",
"*+	c #E5CFCC",
"=+	c #E3C6C0",
"-+	c #D6BBBB",
";+	c #102285",
">+	c #8D84A9",
",+	c #1E2D88",
"'+	c #DFC0B9",
")+	c #726FA2",
"!+	c #E1C7C1",
"~+	c #E1C2BC",
"{+	c #E2C8C2",
"]+	c #E4CCC7",
"^+	c #E6CECA",
"/+	c #E5CCC7",
"(+	c #E5CDC8",
"_+	c #E2C4BD",
":+	c #E1C3BC",
"<+	c #E2C3BC",
"[+	c #E7D3CF",
"}+	c #E7D1CD",
"|+	c #404792",
"1+	c #E2C6BF",
"2+	c #E5CBC6",
"3+	c #E6CFCB",
"4+	c #E6CFCA",
"5+	c #E6D1CD",
"6+	c #E3C9C2",
"7+	c #E2C4BE",
"8+	c #E6D0CC",
"9+	c #E6D3D0",
"0+	c #E4D0CC",
"a+	c #E5CBC5",
"b+	c #E6D1CF",
"c+	c #E5CFCD",
"d+	c #E4C8C3",
"e+	c #E4CBC8",
"f+	c #E5CEC9",
"g+	c #484F96",
"                              + @ # $ % % $ & * =                               ",
"                        - ; > , ' ) @ ! ~ { ] ' , > ^ /                         ",
"                    ( _ , : < [ } | 1 2 3 4 5 } 6 < : , _ (                     ",
"                  7 8 9 0 a b c 1 d e f g g b h 3 i j 0 k 8 l                   ",
"              m n o p q c r s t u v 5 f w x y z 2 2 A B C D E n m               ",
"            F 8 G } e i H I J z K b L M f 1 u z N O O P v Q R G 8 S             ",
"          S T + U | M Q V W X W Y Z `  ...+.3 u Z K N @.e #.| $.+ T S           ",
"        ( %.+ &.| b *.=.-.W W W Y K | ;.>.,.'.Z N r r a L 3 5 +.q = %.~         ",
"        n G C L 5 5 ).I B !.} ~.{.I O ;.].^./.b #.H p ; (.2 x ;.5 _.G n         ",
"      7 o } N L 5 L u W B K / %.S :.K 5 <.2 [.5 {.}.|.1./ 2.w 3.2 O } o l       ",
"    ( 8 D 4.P w 5.6.7.=.#.Z - 1.> ~.8.9.h =.R 0.a., b.n 1.$ c.d.2 Q c p 8 (     ",
"    _ k e.K N | ] 1.^ f.N 1 - 1.g.h.-.i.0.j.k.1.1.g.l.m.9 8 1.7 n.O 5 2.9 o.    ",
"  p., D K K O P q.1.n l.r.3 - 1.E s.h.^ 1.1.1.) t.1.t.a u.$ 1.v.7.g e ` D , /   ",
"  ; # a /.=.u K w.1.k.a r.9.- 1.t.g l.v.1.1.1.0.x./ , 5.y.n 1.c.@.).3.;.z.A.^   ",
"  8 q.5 u =.2 N 6 1.g.B.~.C.D.1.@ 5 u j E.F.8 g.7.G.H.v.T 1.I.u.4 3 J.K.J / 8   ",
"+ , [ b u /.y u l.n 1.1.1.1.1.1.! 3.i | 3.i w.v.j.H.o.1.%.L.U y u x ,.*.M.~., }.",
"{ N.O.w @.P.N u x.S , A.c.( o 1.Q.J.L | d.0.H.g.1.1.1.g.0.*.R.@.S.s.R.y M.i.T.{ ",
"& ) s  .Z K U.u u a (.:.9.9.V.1.}.2 ^.U l 1.1.1.1.n * m.y.5.;.g 4.W.X.-.M.Y.) & ",
"$ { Z.,.5 u e.4.s.E.0 l.l.6 F.1.= K X.$.l 1.1.o.I.`.2  +.+8 `.S.#.L ++X Y.W { $ ",
"% ~ =.5 ` ).N 7.t.% 1.n n 1.1.1.= [.@+< ) 1.7 6.Q.Q.Q.G 1.1.] S 9 : #+M.$+Y ~ % ",
"% ~ %+K L Z 0 k.1.1.1.1.n n %.1.}.B.v.1.1.1.1.1.1.1.1.1.1.1.1.1.1.8 0.M.&+8.( % ",
"$ @ r B +.w 0.v.t./ T.% C.B.k 1.V.w.8 v.^ j.H.q.+ + < F.T 1.1.1.8 6.8.$+J *+{ $ ",
"& ) 4.=.y ^.G.h.G.Q ] 1.w.2 #+1.Q.x.l.h.e.t b =++.+.].-+l 1.= c.y.-+X M.J /.) & ",
"{ N.} B N *.Z u S.f.o.;+R b S 1.6.4 Q K {.5.6.`.X.++;.-+T.1.R Z <.=+X &+B i.N.* ",
"+ , 6 4 N i y ).u Q.1.D.Z ` #+1.I.P O N >+8 1.,+O.'+'+O.g.v.<.).L 3.J !.B 6 , )+",
"  8 - /.S.r !+U )+%.1.- 5 ` #+1.k u ).Q 6 l |.1.I.'+~+B., ] x g <.{+W &+4 q.8   ",
"  ,+: a O K h.@ > 1..+ +R.,.k 1.A.g @.O ]+u  +y.y.'+-+{ 1.L.v c 1 | X B j # ;   ",
"  p., D r } ^ 1.1.1.L.;.;.~+t.1.7 U u ]+b =+ .^+r.`.t.1.1.y.Z /+L (+X h D , p.  ",
"    v.9 S.(.8 1.1.# -+;._+:+t.1.N.R y t +.<+[+0 k |.1.1.& -+3 3 K.}+X {.k _     ",
"    m 8 p G.C.|+Q.O.1+_+].(+I.1.N.} | 2+~+^.6 T 1.1.1.l m.{+N 1 ].X =.D 8 !     ",
"      b.o } 3 3+N _+_+4+P Q 6 l F.A r.>._+[+w.8 1.T F.n.<.2+P A +.M.i.E 7       ",
"        n 6._.z '.(+P V V !.5+U ~+<.5 3.6+X z.5.}.l.B | 3+| K A K.Y.6.n         ",
"        m %.}.U.H Q V I B z 5+K 7+;.M 7+5+B J 8+9+*+*+1 A x *+L ` 5., m         ",
"          S T }.Y I &+W V H Q 0++.:+:+{+M.8.4.Q z h P a+Q d b+s.+ T S           ",
"            F %.6.i.8.K [+*+B 8+(+A  .9.W 5+c t c+[+O d+P 8+i.G 8 S             ",
"              ( n o D S.h O 8+s 9.V I z *+e+c f+u b+4.3 G.D o n c.              ",
"                  7 8 k 0 f.K K s B I =.r N | /+1 h j D 9 8 7                   ",
"                    ( o., : q.~.i.B B N P i 1 R 6 q.# , o.(                     ",
"                        - ,+> , T.) { H.( g+) ' , > ,+-                         ",
"                              }.{ & $ % % $ & * )+                              "};
