/* XPM */
static char * Blue6_xpm[] = {
"40 40 227 2",
"  	c None",
". 	c #000000",
"+ 	c #7371A4",
"@ 	c #474E95",
"# 	c #25338C",
"$ 	c #0F2185",
"% 	c #031781",
"& 	c #24328C",
"* 	c #7573A5",
"= 	c #6A6AA0",
"- 	c #1E2D89",
"; 	c #011580",
"> 	c #021781",
", 	c #122385",
"' 	c #2D398E",
") 	c #5A5D9C",
"! 	c #484F98",
"~ 	c #6B6CA3",
"{ 	c #5D5F9E",
"] 	c #0B1E83",
"^ 	c #25338B",
"/ 	c #6969A0",
"( 	c #AD9FB5",
"_ 	c #D3BDC0",
": 	c #E3CAC5",
"< 	c #E4CAC5",
"[ 	c #E4CBC7",
"} 	c #E4CCC8",
"| 	c #E4CCC9",
"1 	c #E2C8C3",
"2 	c #D3BFC3",
"3 	c #182887",
"4 	c #011680",
"5 	c #394291",
"6 	c #A095B1",
"7 	c #D9C2C2",
"8 	c #E3C9C4",
"9 	c #E4CBC6",
"0 	c #E5CBC7",
"a 	c #E2C8C4",
"b 	c #E3CAC6",
"c 	c #E6D0CD",
"d 	c #E3CBC6",
"e 	c #DCC5C5",
"f 	c #A69BB5",
"g 	c #3B4492",
"h 	c #172787",
"i 	c #5C5E9C",
"j 	c #041881",
"k 	c #1C2B89",
"l 	c #9C91AF",
"m 	c #E1C7C2",
"n 	c #E4CECA",
"o 	c #E4CFCB",
"p 	c #E5CDC9",
"q 	c #E3CBC7",
"r 	c #E3CAC4",
"s 	c #E3C9C5",
"t 	c #E4CAC6",
"u 	c #E2C9C4",
"v 	c #E6D1CE",
"w 	c #E5CCC8",
"x 	c #E5D0CD",
"y 	c #DFC7C5",
"z 	c #9C93B3",
"A 	c #1C2C88",
"B 	c #434B95",
"C 	c #505599",
"D 	c #E5D0CE",
"E 	c #E5D1CE",
"F 	c #E6D3D0",
"G 	c #E4CECB",
"H 	c #E2C7C2",
"I 	c #E3C8C3",
"J 	c #E3CCC8",
"K 	c #E4CDC9",
"L 	c #E5CECA",
"M 	c #E5CFCB",
"N 	c #414A95",
"O 	c #071A82",
"P 	c #7572A3",
"Q 	c #DEC5C2",
"R 	c #E6D2CF",
"S 	c #E5D2D0",
"T 	c #E7D4D1",
"U 	c #E6D2D0",
"V 	c #E5D1CF",
"W 	c #E1C6C1",
"X 	c #E3C9C3",
"Y 	c #E1C5C0",
"Z 	c #E3CBC8",
"` 	c #E3CCC9",
" .	c #DEC2BD",
"..	c #736FA1",
"+.	c #5C609E",
"@.	c #021681",
"#.	c #E1C8C4",
"$.	c #E4CFCC",
"%.	c #E4D0CD",
"&.	c #E0C4BE",
"*.	c #E2C6C1",
"=.	c #E2C9C5",
"-.	c #E2C6C0",
";.	c #5B5F9D",
">.	c #52579B",
",.	c #E2C9C3",
"'.	c #E5D1CD",
").	c #E3CDCA",
"!.	c #DCC8C8",
"~.	c #B8A6B6",
"{.	c #DEC3BE",
"].	c #E2C7C1",
"^.	c #E1C4BE",
"/.	c #E1C9C6",
"(.	c #D5C4C9",
"_.	c #2C388D",
":.	c #051981",
"<.	c #495098",
"[.	c #E2CAC7",
"}.	c #E4C9C4",
"|.	c #E4C9C3",
"1.	c #E1C6BF",
"2.	c #E4CDCA",
"3.	c #E5CDCA",
"4.	c #DDCACB",
"5.	c #22318B",
"6.	c #001580",
"7.	c #0F2285",
"8.	c #E5CBC6",
"9.	c #998EAE",
"0.	c #E1CCCA",
"a.	c #E2CFCD",
"b.	c #BEABB9",
"c.	c #9089AD",
"d.	c #7370A3",
"e.	c #62629D",
"f.	c #4D5297",
"g.	c #1A2A88",
"h.	c #0D1F84",
"i.	c #5E62A0",
"j.	c #6D6DA3",
"k.	c #837DA7",
"l.	c #D9BFBC",
"m.	c #0B1E84",
"n.	c #E2C8C2",
"o.	c #303C8F",
"p.	c #0C1E84",
"q.	c #7B78A7",
"r.	c #595C9C",
"s.	c #1F2E8B",
"t.	c #E0C5BF",
"u.	c #E2CBC7",
"v.	c #D4C2C6",
"w.	c #B0A5BB",
"x.	c #B1A2B5",
"y.	c #E3C8C2",
"z.	c #E5D3D0",
"A.	c #AC9DB3",
"B.	c #E2CBC8",
"C.	c #E5CCC7",
"D.	c #E7D6D5",
"E.	c #112385",
"F.	c #CCB8BE",
"G.	c #E3CDCB",
"H.	c #3E4693",
"I.	c #E3C7C0",
"J.	c #132486",
"K.	c #E2CCC9",
"L.	c #6666A0",
"M.	c #D0BCC1",
"N.	c #E3C7C2",
"O.	c #2A368D",
"P.	c #CAB4BB",
"Q.	c #E2C5BF",
"R.	c #E3CAC7",
"S.	c #E3D2D1",
"T.	c #E2CCC8",
"U.	c #E1CCC8",
"V.	c #C7B2BB",
"W.	c #DFC1BB",
"X.	c #E6D4D3",
"Y.	c #E2C9C6",
"Z.	c #E3CECA",
"`.	c #E0CAC8",
" +	c #8A83A9",
".+	c #E0C3BC",
"++	c #E4D1CF",
"@+	c #8E86AC",
"#+	c #E1C5BF",
"$+	c #E4D0CE",
"%+	c #E2CECB",
"&+	c #E4CCC7",
"*+	c #C4B5C1",
"=+	c #E1C4BF",
"-+	c #E5CFCC",
";+	c #E2CFCE",
">+	c #0F2184",
",+	c #E3C8C4",
"'+	c #E2C4BD",
")+	c #E0C0B8",
"!+	c #E4D1CE",
"~+	c #D9C3C4",
"{+	c #E1C3BC",
"]+	c #E3C6C0",
"^+	c #E0C3BB",
"/+	c #E0C2BC",
"(+	c #E6CECA",
"_+	c #E2CAC5",
":+	c #E4C7C2",
"<+	c #E2C5C0",
"[+	c #E8D3CF",
"}+	c #5C5D9B",
"|+	c #E2C5BE",
"1+	c #E5CDC7",
"2+	c #E3C7C1",
"3+	c #E3C5BD",
"4+	c #E6CDC8",
"5+	c #E6CCC8",
"6+	c #E6D2CE",
"7+	c #E7D3D1",
"8+	c #E6D0CC",
"9+	c #E5CBC5",
"0+	c #E5D0CC",
"a+	c #E4CBC8",
"b+	c #E5CEC9",
"c+	c #D9C4C5",
"d+	c #D5C3C7",
"                              + @ # $ % % $ & @ *                               ",
"                        = - ; > , ' @ ) ) ! ' , > ; - ~                         ",
"                    { ] > ^ / ( _ : < [ } | 1 2 ( = # > ] {                     ",
"                  3 4 5 6 7 8 9 < 0 a < b b 8 c } d e f g 4 h                   ",
"              i j k l m 9 n o p q r 1 < s t u v [ [ w x y z A j i               ",
"            B 4 C 2 a d D E F v G 8 H I < < q v J K K L r M _ C 4 N             ",
"          B O P Q : I M R S T U V b W X Y Y } q b G J Z a ` :  ...O N           ",
"        +.@.P #.: 8 m $.%.S S U V G : &.*.Y K b J n n =.H } 1 -.W P @.;.        ",
"        j >.y H ,.1 =.E x '.G ).E E !.~.{.].).8 ` E $.a I [ t ^.1 /.C j         ",
"      3 A 2 J H 1 H q R x G K | K (._.:.<.[ [.1 x x L }.1 |.s 1.[ K 2 k h       ",
"    { 4 z 2.3.s 8 u V $.` b : b | 4.5.6.7.c b J E c } : 8.s #.Y [ M 9 9.4 +.    ",
"    ] g 0.G J : H } a.b.c.d.e.) f.f.g.6.h.f.f.i.i.j.k.c.f l.} ].: K 1 {.5 m.    ",
"  / > 6 G G K 3.< x >.> 6.6.6.6.6.6.6.6.6.6.6.6.6.6.6.6.6...w n.} b a W l > ~   ",
"  A # 7 ).$.q G G S o.6.6.p.& ! e.j.k.k.q.P / r.g s.:.6.j l [ W Z =.t.^.!.# s.  ",
"  4 = 1 u.$.[ J V E v.6 w.f $ j.} 1 q p < t ).( ' x.2 x.~.y.b H | } &.y.z.j.4   ",
"+ > A.8 q ).u q $.$.} B.V z 6.& K t.d : t.d E e.6.f.t |.C.I I u u.t Y m D.w.> * ",
"! E.F.s Z G.J q ).n b $.0.H.6.o.2 t.H : I.0.c.O 6.= *.&.8 I *.Z B.m *.u D.(.J.! ",
"# ' m X b G K.q q #.p 4.L.4 6.6.J.e.M.N.F.i.j j @.O.k.P.8 W Q.b 2.R  .%.D.S.' # ",
"$ ! T.Y 1 u.U.2.b 1 w.5 4 6.C + > 6.5 V.E.6.4 * q.j 6.J.i b.I.B.` H W.X.S.S <.$ ",
"% ) $.1 W Y.T.Z.K.* j 6.6.O.M.`.= 6.:.F.N @.L.{.t  +O 6.O  +^.` J Y .+D.++V ;.% ",
"% ) Z.G H b T.` ).i.4 @.N M.J /.`.@+6 k  +F.w }.&.#+A...b.1 Q.B.=.1 d X.++$++.% ",
"$ @ n x -.s ` $.G %+f f `.R.b &+J c *+O O *+9 y.=+.+Q.].t 1 Q.q [ I.R S.F -+<.7.",
"# ' 2.$.u ].} `.9.>.H.H.H._._._._._.s.6.6.5.g H.C C i i / ....* k.l ;+X.F ).' & ",
"! E.2 x J m 7 f.@.6.6.6.6.6.6.6.6.6.6.6.6.6.6.6.6.6.6.6.6.6.6.6.6.] v.++x v.E.@ ",
"+ > ( | J d P 6.6.6.6.6.6.j - H.>./ >.6.6.= k...e.H.>+6.6.6.6.6.6.P z.'.x ( > ..",
"  4 = ).B.n / 6.% 7.@ k.x.l.W ,+#.q l 6.6.A.'+)+)+)+W.( B j 6.O = Q R !+| ~ 4   ",
"  - ^ ~+K G _ 9.~.e a N.*.Y I Y C.b 9.6.% x.{+]+)+W.^+L Y x.@+b.< : T x e # A   ",
"  / > 6 n q } *.1 H I ^.^./+=+N.8.u c.6.j ~.X (+_+)+]+[ |.t.b C.N.p T c 6 > /   ",
"    ] 5 B.p L :+*.y.<+&.'+{+/+^.I H  +6.O b.[+R M ].} 9 8 Y } } y.c T %+g ]     ",
"    }+4 l q 2.< ^.|+-.'+I.1+^.W.]+8.@+6.O P.F [+R M x I #.n.J < 2+T $.z 4 }+    ",
"      3 k 2 } M J '+3+(+L M 9 :+^.4+6 6.] (.F E T R G X }.8.L 5+Y D.(.A 3       ",
"        j >./.v K p L R 6+'.c r {+}.F.J.g T o c F M x : (+: G 5+y.S.>.j         ",
"        i @.* K.D M R E x v c G |+^.I b.v.x 7+8+F -+-+< w t -+H W q.> i         ",
"          N O q.++E !+S R D M $.-.{+{+n.D.$+2.M v c L 9+M 0 R y P O B           ",
"            B @.>.(.$+G [+-+x 8+p w X 0+U c 9 p x [+K I L 8+(.>.4 N             ",
"              { j k z `.c K 8+o 0+R E v -+a+9 b+q U 2.} /.z A j i.              ",
"                  3 4 g 6 !.G G o x E $.n J : C.< c c+6 5 4 3                   ",
"                    { m.> # ~ w.d+x x J L d < _ ( j.# > m.i.                    ",
"                        = - ; > J.' <.) { @ ' , > ; - ~                         ",
"                              * ! # $ % % $ & @ d.                              "};
