/* XPM */
static char * Blue5_xpm[] = {
"40 40 232 2",
"  	c None",
". 	c #000000",
"+ 	c #7371A5",
"@ 	c #474E95",
"# 	c #24338C",
"$ 	c #0F2185",
"% 	c #031781",
"& 	c #24328B",
"* 	c #6A6AA1",
"= 	c #1C2C89",
"- 	c #011580",
"; 	c #021781",
"> 	c #112385",
", 	c #2D398E",
"' 	c #5A5C9B",
") 	c #5A5E9D",
"! 	c #474F97",
"~ 	c #1E2D88",
"{ 	c #6C6EA4",
"] 	c #5D609E",
"^ 	c #0B1E83",
"/ 	c #25338B",
"( 	c #6969A0",
"_ 	c #AE9EB3",
": 	c #D2BEC3",
"< 	c #E3CAC5",
"[ 	c #E4CAC5",
"} 	c #E4CBC7",
"| 	c #E4CCC8",
"1 	c #E4CCC9",
"2 	c #E2C8C3",
"3 	c #ADA1B7",
"4 	c #182887",
"5 	c #011680",
"6 	c #3A4291",
"7 	c #9E94B1",
"8 	c #DBC2C0",
"9 	c #E3C9C4",
"0 	c #E4CBC6",
"a 	c #E5CBC7",
"b 	c #E2C8C4",
"c 	c #E4C9C5",
"d 	c #E2CAC6",
"e 	c #E6D0CD",
"f 	c #E3CBC6",
"g 	c #DAC4C4",
"h 	c #A59AB4",
"i 	c #3C4592",
"j 	c #172787",
"k 	c #5C5F9D",
"l 	c #041881",
"m 	c #1C2B89",
"n 	c #9C91AF",
"o 	c #E0C6C2",
"p 	c #E4CECA",
"q 	c #E4CFCB",
"r 	c #E5CDC9",
"s 	c #E3CBC7",
"t 	c #E3CAC4",
"u 	c #E3C9C5",
"v 	c #E4CAC6",
"w 	c #E2C9C4",
"x 	c #E6D1CE",
"y 	c #E5CCC8",
"z 	c #E5D0CD",
"A 	c #DDC6C4",
"B 	c #9B93B3",
"C 	c #5C5E9C",
"D 	c #434B96",
"E 	c #021680",
"F 	c #4E5398",
"G 	c #E5D0CE",
"H 	c #E5D1CE",
"I 	c #E6D3D1",
"J 	c #E4CECB",
"K 	c #E2C7C2",
"L 	c #E3C8C3",
"M 	c #E3CCC8",
"N 	c #E4CDC9",
"O 	c #E5CECA",
"P 	c #E5CFCB",
"Q 	c #D0BABE",
"R 	c #424A94",
"S 	c #061A82",
"T 	c #7672A3",
"U 	c #E6D2CF",
"V 	c #E5D2D0",
"W 	c #E6D4D1",
"X 	c #E5D1CF",
"Y 	c #E3CAC6",
"Z 	c #E2C6C0",
"` 	c #E0C5C0",
" .	c #E3CBC8",
"..	c #E3CCC9",
"+.	c #DEC3BF",
"@.	c #7470A1",
"#.	c #021681",
"$.	c #E1C7C2",
"%.	c #E4CFCC",
"&.	c #E4D0CD",
"*.	c #E1C4BE",
"=.	c #E1C5C0",
"-.	c #E3CDC9",
";.	c #E2C9C5",
">.	c #52579A",
",.	c #E2C9C3",
"'.	c #BAACBC",
").	c #E5D1CD",
"!.	c #E3CDCA",
"~.	c #DFC4BD",
"{.	c #B1A1B5",
"].	c #55599A",
"^.	c #DFC8C6",
"/.	c #D4C1C6",
"(.	c #B0A2B7",
"_.	c #071A82",
":.	c #0A1D83",
"<.	c #AA9EB6",
"[.	c #6D6BA1",
"}.	c #001580",
"|.	c #D6BDBE",
"1.	c #E4C9C4",
"2.	c #E4C9C3",
"3.	c #E1C6BF",
"4.	c #011681",
"5.	c #E4CDCA",
"6.	c #7F7BA7",
"7.	c #E3D0CE",
"8.	c #E5D0CC",
"9.	c #E5CBC6",
"0.	c #E0CAC8",
"a.	c #8D87AD",
"b.	c #DCCACC",
"c.	c #0B1E84",
"d.	c #1A2A88",
"e.	c #B4A9BD",
"f.	c #D0BCC2",
"g.	c #C9B7C1",
"h.	c #C7B5BF",
"i.	c #C8B2BA",
"j.	c #CCB7BC",
"k.	c #D9C4C4",
"l.	c #E2C7C1",
"m.	c #374191",
"n.	c #69689F",
"o.	c #9F95B3",
"p.	c #E3CECB",
"q.	c #DAC6C7",
"r.	c #9289AB",
"s.	c #E1C9C6",
"t.	c #041981",
"u.	c #192988",
"v.	c #1D2C88",
"w.	c #D8C1C1",
"x.	c #C3B2BE",
"y.	c #21308B",
"z.	c #2F3B8F",
"A.	c #474C94",
"B.	c #495098",
"C.	c #122486",
"D.	c #132586",
"E.	c #E1C5BF",
"F.	c #27348C",
"G.	c #E2CBC7",
"H.	c #081C83",
"I.	c #C7B7C2",
"J.	c #63649E",
"K.	c #867FA8",
"L.	c #E1CBC7",
"M.	c #E5CCC7",
"N.	c #B7A6B6",
"O.	c #C2B0BD",
"P.	c #E4D3D1",
"Q.	c #958DAE",
"R.	c #8C85AB",
"S.	c #E6D5D4",
"T.	c #B0A6BC",
"U.	c #7575A8",
"V.	c #E3CDCB",
"W.	c #0D1F84",
"X.	c #7B78A7",
"Y.	c #E2CBC8",
"Z.	c #E0C7C4",
"`.	c #D5C3C8",
" +	c #485098",
".+	c #BFACB8",
"++	c #AE9FB5",
"@+	c #E0C2BC",
"#+	c #E3CAC7",
"$+	c #DFC3BD",
"%+	c #E2CCC8",
"&+	c #E1CCC8",
"*+	c #716FA3",
"=+	c #DFC2BB",
"-+	c #E2C9C6",
";+	c #7976A5",
">+	c #E0C4BF",
",+	c #E3CECA",
"'+	c #2A368C",
")+	c #E4D1CE",
"!+	c #E3C7C0",
"~+	c #E6D3CF",
"{+	c #E5CFCC",
"]+	c #E2C7C3",
"^+	c #DBC4C3",
"/+	c #5B5E9C",
"(+	c #DFC3BC",
"_+	c #E2C8C2",
":+	c #E2C4BE",
"<+	c #E0C1BA",
"[+	c #E2C5BF",
"}+	c #DFC0B9",
"|+	c #E3C7C2",
"1+	c #E1C9C5",
"2+	c #E6CECA",
"3+	c #E2CAC5",
"4+	c #E0C3BB",
"5+	c #E1C4BF",
"6+	c #E2C4BD",
"7+	c #E1C3BD",
"8+	c #E2CDCB",
"9+	c #E5CDC7",
"0+	c #E1C4BD",
"a+	c #E3C5BD",
"b+	c #E6D3D0",
"c+	c #E7D1CE",
"d+	c #E2C3BC",
"e+	c #E3C9C2",
"f+	c #E6D0CC",
"g+	c #E6CFCC",
"h+	c #E6D1CF",
"i+	c #E5CEC9",
"                              + @ # $ % % $ & @ +                               ",
"                        * = - ; > , @ ' ) ! , > ; - ~ {                         ",
"                    ] ^ ; / ( _ : < [ } | 1 2 : 3 * / ; ^ ]                     ",
"                  4 5 6 7 8 9 0 [ a b c d d 9 e | f g h i 5 j                   ",
"              k l m n o 0 p q r s t 2 c u v w x } } y z A B m l C               ",
"            D E F : b f G H I x J 9 K L c [ s x M N N O t P Q F E R             ",
"          D S T o < L P U V W V X Y Z 9 ` Z | s Y J M  .b ..< +.@.S R           ",
"        ] #.T b < 9 $.%.&.V V V X J < *.Z =.-.Y M p p ;.K | 2 Z o T #.k         ",
"        l >.A K ,.2 ;.'.'.).J !.H H N ~.{.].'.9 ..H %.b L } v *.2 ^.>.l         ",
"      4 = /.M K 2 K (._.:.<.N 1 N %.J 2 [.}.= |.z z O 1.2 2.u 3.} N : m j       ",
"    ] 4.B 5.O u 9 w 6.}.}.( < Y 1 z 7.8.D }.- '.H e | < 9.u b =.} P 0 n 5 ]     ",
"    ^ 6 0.J M < K | a.}.}.6.| Y f 1 &.b.c.}.d.e.f.f.g.h.i.j.k.l.< N 2 +.m.c.    ",
"  n.; o.J p.N O [ z h }.}.7 q.k r.s.z a.}.}.}.4.c.c.t.}.}.:.u.r.| d b Z n ; {   ",
"  v.# w.!.%.s x.g.V e.}.}.3 3 }.l h k.y.}.}.}._.~ z.A.B.C.}.}.D.f.;.E.E.q.F.~   ",
"  5 * 2 G.%.(.H.$ I.x.}.}.e.6.}.t._ J.}.C.K.e.: A L.M.9 N.S }.l O.| ~.L P.{ 5   ",
"+ ; <.9 s !.(.5 }.Q.x.}.}.e.z.l R.K.l % r.f x ..N r v 2.M., }.u.A v =.$.S.T.; U.",
"! > Q u  .V.q.~ }.a.O.}.}.U.W.K.: $ _.X.[.T h O.Q : +.*.9 R }.z.Y.Z.Z w S.`.C  +",
"# , Z.9 Y J ..] }.n x.}.}.T.h.P b.Q..+++}.}.}.; c.W.@.@+9 / }.B.5.#+$+&.S.P.z.# ",
"$  +%+=.2 G.&+e.t.{.O.}.l g.G.-.d J $+K.}.= ] ] ~ }.R $+Q H.}.*+..K =+W P.V B.$ ",
"% ) %.2 Z -+%+!.>.I.e.}.$ : 1 Y.< d $.;+}.{ s Z @.}.A.>+n 5 ; <.M ` @+S.7.X ) % ",
"% ) ,+J K Y %+..!.%.o.}.d.k.M s.-  .p [.}.F.;+T F.}.;+Z ] }.'+A ;.2 f S.)+7.] % ",
"$ @ p z Z u ..%.p.e 6.}., s.Y | M e e * }.}.}.}.}.t.N.l.' F.N.s } !+~+P.I {+B.$ ",
"# z.5.%.w l.| ..G.P >.}.B.g.]+| P J O * }.C.F ' C r.=.>+^++.=.-.Z =+W S.I !.z.# ",
"! > : z M $.Y s Y.&+4 }./+C.[.Q r 1 P U.}.[.Z @+(+=+*.Z E.E._+Y 1.Z W )+z /.> A.",
"+ ; <.1 M f w ;.s B }.#.++B.}.W.' T.M X.}.>.:+<+[+<+}+[ |+2 1.1+|+E.P.).z 3 ; @.",
"  5 * !.Y.p l.9 j.d.}.= 8 i.4 }.}.5 Q.r.}.C.j.<+}+}+@+2+E.3+v d 1._+V )+1 { 5   ",
"  ~ / g N J M..+z.}.}.n.Z =._ '+m.R.g '.5 }.i N.|.<+4+O Z 2 t 0 Z..+e.z q.# v.  ",
"  ( ; 7 p s h > }.}.$ i.*.@+5+|+9.w s 0 ].5 }.; ~ A.n.6.Q.R.;+].F.l D.e o.; n.  ",
"    ^ 6 Y./.u.}.}.}.6.*.6+7+@+*.L K w r 8 6.j }.}.}.}.}.}.}.}.}.}.}.! 8+i ^     ",
"    C 5 n O.t.}.5 J.>+6+!+9+0+<+Z 9.< 9.<+Z `.a.m.#.}.}.}.}.}.}.}.4.h B 4.C     ",
"      j m : h + (.6+a+2+O P 0 |+*.r 3+Z 6+~+b+H W f.R.].'+W.H._.C.U.`.m 4       ",
"        l >.^.c+-.r O U x ).e t d+1.,.E.e+W q e b+P z < 2+^+f.h.|.P.>.l         ",
"        C #.U...G P ~+H z x e J [+*.L [+e z I f+b+{+{+[ y v g+K o X.; /+        ",
"          R S U.X H )+V U G P %.Z 7+7+_+S.7.5.P c+e O 9.P a h+Z.T S D           ",
"            D #.>.`.7.J b+g+z f+r y 9 8.V e 0 r z b+N L O f+`.>.E R             ",
"              ] l m B 0.e N f+q 8.U H x {+| 0 i+s h+5.| s.B = l ]               ",
"                  4 5 6 o.q.J J q z H %.p M < M.[ e g 7 6 5 u.                  ",
"                    k c.; / { T.`.z z M O f [ f.++[.# ; c.]                     ",
"                        * ~ - ; C.z.B.' k ! , > ; - ~ *                         ",
"                              U  +# $ % % $ & @ *+                              "};
