/* XPM */
static char * Blue2_xpm[] = {
"40 40 232 2",
"  	c None",
". 	c #000000",
"+ 	c #7572A3",
"@ 	c #484E95",
"# 	c #24338C",
"$ 	c #0F2185",
"% 	c #031781",
"& 	c #24338B",
"* 	c #7372A6",
"= 	c #6A69A0",
"- 	c #1D2C89",
"; 	c #011580",
"> 	c #021781",
", 	c #122385",
"' 	c #2D3A8E",
") 	c #5A5D9C",
"! 	c #5B5F9D",
"~ 	c #484F98",
"{ 	c #2C398D",
"] 	c #1E2D89",
"^ 	c #6B6BA2",
"/ 	c #5D609E",
"( 	c #0B1E83",
"_ 	c #26338B",
": 	c #AB9DB5",
"< 	c #D2BDC1",
"[ 	c #E3CAC5",
"} 	c #E4CAC5",
"| 	c #E4CBC7",
"1 	c #E4CCC8",
"2 	c #E4CCC9",
"3 	c #E2C8C3",
"4 	c #D3BEC2",
"5 	c #ACA0B8",
"6 	c #26338C",
"7 	c #182887",
"8 	c #011680",
"9 	c #394392",
"0 	c #A096B2",
"a 	c #DAC2C1",
"b 	c #E3C9C4",
"c 	c #E4CBC6",
"d 	c #E5CBC7",
"e 	c #E2C8C4",
"f 	c #E4C9C5",
"g 	c #E3CAC6",
"h 	c #E6D0CD",
"i 	c #E3CBC6",
"j 	c #DBC5C5",
"k 	c #A298B4",
"l 	c #172887",
"m 	c #041881",
"n 	c #1C2B88",
"o 	c #998FAF",
"p 	c #E0C6C2",
"q 	c #E4CECA",
"r 	c #E4CECB",
"s 	c #E5CDC9",
"t 	c #E3CBC7",
"u 	c #E3CAC4",
"v 	c #E3C9C5",
"w 	c #E4CAC6",
"x 	c #E2C9C4",
"y 	c #E6D1CE",
"z 	c #E5CCC8",
"A 	c #E5D0CD",
"B 	c #DFC6C3",
"C 	c #9A92B3",
"D 	c #5C5D9B",
"E 	c #434A95",
"F 	c #021680",
"G 	c #505599",
"H 	c #E5D0CE",
"I 	c #E5D1CE",
"J 	c #E6D3D1",
"K 	c #E2C7C2",
"L 	c #E3C8C3",
"M 	c #E3CCC8",
"N 	c #E4CDC9",
"O 	c #E5CECA",
"P 	c #E5CFCB",
"Q 	c #D2BBBD",
"R 	c #424B96",
"S 	c #061A82",
"T 	c #DDC5C3",
"U 	c #E6D2CF",
"V 	c #E5D2D0",
"W 	c #E6D4D2",
"X 	c #E6D2D0",
"Y 	c #E5D1CF",
"Z 	c #E1C6C1",
"` 	c #E3C9C3",
" .	c #E1C5C0",
"..	c #E1C6C0",
"+.	c #E3CBC8",
"@.	c #E3CCC9",
"#.	c #DFC3BD",
"$.	c #7470A2",
"%.	c #021681",
"&.	c #E1C7C2",
"*.	c #E4CFCC",
"=.	c #E4D0CD",
"-.	c #E3CFCF",
";.	c #8C84AA",
">.	c #5D5F9D",
",.	c #BEABB8",
"'.	c #E3C6C0",
").	c #E3CDC9",
"!.	c #E2C9C5",
"~.	c #E2C6C0",
"{.	c #E2C9C3",
"].	c #E5D1CD",
"^.	c #DCC7C8",
"/.	c #001580",
"(.	c #2A368C",
"_.	c #C8B3BA",
":.	c #E2C7C1",
"<.	c #E3CDCA",
"[.	c #E1C4BE",
"}.	c #E0C7C5",
"|.	c #D3C0C4",
"1.	c #8E87AC",
"2.	c #0A1C83",
"3.	c #37408F",
"4.	c #7A77A7",
"5.	c #E4C9C4",
"6.	c #E1C6BF",
"7.	c #162686",
"8.	c #011681",
"9.	c #E4CDCA",
"0.	c #E1C7C4",
"a.	c #C1ADB9",
"b.	c #62649F",
"c.	c #9088AC",
"d.	c #2A378E",
"e.	c #E5CBC6",
"f.	c #E0CCCB",
"g.	c #0D1F84",
"h.	c #585B9B",
"i.	c #B4A6B9",
"j.	c #DDCACC",
"k.	c #182988",
"l.	c #C0B0BD",
"m.	c #E2CCC9",
"n.	c #DCC2BF",
"o.	c #0B1E84",
"p.	c #6768A0",
"q.	c #23318B",
"r.	c #7775A6",
"s.	c #3F4793",
"t.	c #7270A4",
"u.	c #857FA9",
"v.	c #E2C8C2",
"w.	c #A093AF",
"x.	c #6F6EA3",
"y.	c #D8C3C4",
"z.	c #454D96",
"A.	c #A89AB1",
"B.	c #7E79A5",
"C.	c #E0C5BF",
"D.	c #E1C5BE",
"E.	c #E2CBC7",
"F.	c #E5CFCC",
"G.	c #B6A8BA",
"H.	c #414994",
"I.	c #C9B6BF",
"J.	c #E4C8C2",
"K.	c #E3C8C2",
"L.	c #E2CBC8",
"M.	c #C3B3C0",
"N.	c #E1CAC8",
"O.	c #D9C4C4",
"P.	c #DAC5C5",
"Q.	c #E6D6D4",
"R.	c #112385",
"S.	c #CEB8BD",
"T.	c #CCBAC2",
"U.	c #0C1F84",
"V.	c #122486",
"W.	c #102285",
"X.	c #7673A4",
"Y.	c #D5C4C9",
"Z.	c #2F3A8D",
"`.	c #DABDBA",
" +	c #E1C5BF",
".+	c #E3CAC7",
"++	c #E3D2D1",
"@+	c #E2CCC8",
"#+	c #E4CECC",
"$+	c #7F7BA8",
"%+	c #323D8F",
"&+	c #E2CDCB",
"*+	c #C4AEB7",
"=+	c #6E6CA1",
"-+	c #DEC0BB",
";+	c #E1C8C3",
">+	c #E2C9C6",
",+	c #E3CECA",
"'+	c #E3CFCC",
")+	c #B3A3B6",
"!+	c #E0C3BC",
"~+	c #E4D1CE",
"{+	c #E4D0CE",
"]+	c #54589A",
"^+	c #DDC8C8",
"/+	c #E3C7C2",
"(+	c #DEC2BB",
"_+	c #DCC6C5",
":+	c #D4C3C7",
"<+	c #071A82",
"[+	c #E1C7C1",
"}+	c #E0C1B9",
"|+	c #1B2A88",
"1+	c #E0C9C7",
"2+	c #6D6A9E",
"3+	c #E6CECA",
"4+	c #E2CAC5",
"5+	c #394291",
"6+	c #B1A1B4",
"7+	c #E6D3D0",
"8+	c #E7D3CF",
"9+	c #E3C7C1",
"0+	c #E6D2CE",
"a+	c #E1C3BC",
"b+	c #E3C9C2",
"c+	c #E2C5BE",
"d+	c #E2C4BE",
"e+	c #E6D0CC",
"f+	c #E6CFCC",
"g+	c #E6D1CF",
"h+	c #E5D0CC",
"i+	c #E5CCC7",
"                              + @ # $ % % $ & @ *                               ",
"                        = - ; > , ' @ ) ! ~ { , > ; ] ^                         ",
"                    / ( > _ = : < [ } | 1 2 3 4 5 = 6 > ( /                     ",
"                  7 8 9 0 a b c } d e f g g b h 1 i j k 9 8 l                   ",
"              ! m n o p c q r s t u 3 f v w x y | | z A B C n m D               ",
"            E F G 4 e i H I J y r b K L f } t y M N N O u P Q G F E             ",
"          R S + T [ L P U V W X Y g Z `  ...1 t g r M +.e @.[ #.$.S E           ",
"        / %.+ e [ b &.*.=.V V X -.;.>.,.'  .).g M q q !.K 1 3 ~.p + %.!         ",
"        m G B K {.3 !.I A ].r ^.* % /.(._.:.<.b @.I *.e L | w [.3 }.G m         ",
"      7 - |.M K 3 K t U A |.1.(.8 /././.2.3.4.T A A O 5.3 5.v 6.| N 4 n 7.      ",
"    / 8.C 9.O 0.a.: 1.b.' > /./.m R o c.d././.c.I h 1 [ e.v e  .| P c o 8 /     ",
"    ( 9 f.r M b.> /././././.g.h.i.+.=.j.] /.k.l.m.N | d e &.1 :.[ N 3 n.3.o.    ",
"  p.> 0 r r N b./././.8 q.~ r.r.^ / b.s./.8 G * t.u.k < 3 ..z v.1 g e Z w.> x.  ",
"  - # a <.*.t y.z.q.h.A.B.m /././././././././././././.(.a K | Z +.!.C.D.^.6 ]   ",
"  8 ^ 3 E.*.| M -.f.F.!.^ /./.4.G.G.1././.c.l.i.5 H./.% I.J.g K 2 1 #.K.J x.8   ",
"t.> : b t <.x t *.*.1 L.5 ; /.M.N.n.0 /./.k j.O.P.~ /._ }.L L x E.w  .&.Q.i.> r.",
"~ R.S.v +.<.M t <.q g *.T.U./.6 { _ V././.U.W.$ g./.8 X.b L ~.+.L.&.~.x Q.Y.V.~ ",
"# ' &.` g r m.t t e s A f.# /./.8 8 /./.6 d.d.d.d.Z.$.`.b Z  +g 9..+#.=.Q.++' # ",
"$ ~ E  .3 E.@+9.g 3 r #+<.l.k $+%+%.( B.&+N M } 3 3 *+=+S.v.'.L.@.K -+W ++V ~ $ ",
"% ! *.;+Z >+@+,+).q '+@.P.1.Z.m /./.g.r.&+).t .  +)+7 /.=+L [.@.M  .!+Q.-.Y ! % ",
"% ! ,+r K g @+@.<.^.5 h.$ /./.R.$ 8 /./.3.T.s 3 ;.2././.p.3  +L.!.3 i Q.~+{+! % ",
"$ @ q A ~.v @.M.G V././.8 ] 4.l./ m R $ /.Z.l.]+%.> , 9 _.;+ +t | '.U ++J F.~ $ ",
"# ' 9.*.x :.1 r././.% %+1.T.B.7 m p.^+* /./.o./.s.A.Q [.} /+ .)...(+W W J <.' # ",
"~ R.4 A M &.g < / ^ G.< 4.] ; V.C _+u.o.8 /.S 2.m @ )+.  + +v.g 5.'.W ~+A :+R.z.",
"t.> 5 2 M i x !.t l.b.R././.9 I.,.s.8 ' B./._ *+G /.<+G G.3 5.!./+ +J ].A 5 > $.",
"  8 = <.L.q [+,.H.8 /./., u.Q = <+8 G ^.$+/.s.}+}+$.%./.8 H.: B 5.v.U ~+2 ^ 8   ",
"  ] _ O.N r g %+/./.2.h.a.;.|+/.<++ 1+^+6 /.2+'.}+-+D /././.8 Z.;.4 W A j # -   ",
"  = > w.q t 1 A.E =+G.w.Z.8 /.7.w.e N.b./.m )+3+4+}+Q (./././././.k.5 h 0 > =   ",
"    ( 5+L.s O J.Z w.Z.> /./.3.*+L a p.> /.5+Y U P :.1 G.7././././.|+k &+9 (     ",
"    D 8 C t 9.} w.m /./.g.u.-+}+n.@ 8 /.<+6+7+8+U P A L *+X.x.u.)+f.*.C 8.D     ",
"      l n 4 1 P T.%+l p.T.P c 9+Q 7 /.<+c.8+7+I W U r ` 5.e.O z ..Q.Y.n 7       ",
"        m ]+}.y ).E.N.U 0+].h u a+)+4.)+b+W r h 7+P A [ 3+[ r z K.++]+m         ",
"        D %.r.m.H P U I A y h r c+[.L d+h A J e+7+F.F.} z w f+K Z 4.> !         ",
"          E S r.-.I ~+V U H P *.~.a+a+v.Q.{+9.P y h O e.P d g+B + S R           ",
"            R %.]+Y.{+r 8+f+A e+s z ` h+X h c s A 8+N L O e+Y.G F E             ",
"              / m n C N.h N e+r h+U I y F.1 c O t X 9.1 1+C - m b.              ",
"                  7 8 9 0 ^.r r r A I *.q M [ i+} h P.0 9 8 k.                  ",
"                    >.o.> 6 ^ i.:+A A M O i } < 6+=+# > o./                     ",
"                        = ] ; > V.' ~ ) ! @ ' , > ; ] ^                         ",
"                              * ~ # $ % % $ & @ t.                              "};
