/* XPM */
static char * Blue4_xpm[] = {
"40 40 229 2",
"  	c None",
". 	c #000000",
"+ 	c #7572A3",
"@ 	c #474E95",
"# 	c #24328C",
"$ 	c #0F2185",
"% 	c #031781",
"& 	c #7573A6",
"* 	c #6A6AA0",
"= 	c #1E2D89",
"- 	c #011580",
"; 	c #021781",
"> 	c #122385",
", 	c #2E398E",
"' 	c #5B5D9A",
") 	c #595E9D",
"! 	c #474F98",
"~ 	c #6A6CA3",
"{ 	c #5D5F9D",
"] 	c #0B1E83",
"^ 	c #25338B",
"/ 	c #AE9FB4",
"( 	c #D2BEC2",
"_ 	c #E3CAC5",
": 	c #E4CAC5",
"< 	c #E4CBC7",
"[ 	c #E4CCC8",
"} 	c #E4CCC9",
"| 	c #E2C8C3",
"1 	c #AB9EB6",
"2 	c #26338B",
"3 	c #5D609E",
"4 	c #182887",
"5 	c #011680",
"6 	c #394291",
"7 	c #9F95B2",
"8 	c #D9C2C2",
"9 	c #E3C9C4",
"0 	c #E4CBC6",
"a 	c #E5CBC7",
"b 	c #E2C8C4",
"c 	c #E4C9C5",
"d 	c #E3CAC6",
"e 	c #E6D0CD",
"f 	c #E3CBC6",
"g 	c #DAC5C5",
"h 	c #3B4492",
"i 	c #172787",
"j 	c #5C5E9C",
"k 	c #041881",
"l 	c #1C2B89",
"m 	c #9A92B2",
"n 	c #E0C6C2",
"o 	c #E4CECA",
"p 	c #E4CFCB",
"q 	c #E5CDC9",
"r 	c #E3CBC7",
"s 	c #E3CAC4",
"t 	c #E3C9C5",
"u 	c #E4CAC6",
"v 	c #E2C9C4",
"w 	c #E6D1CE",
"x 	c #E5CCC8",
"y 	c #E5D0CD",
"z 	c #DDC7C5",
"A 	c #9C93B2",
"B 	c #424A95",
"C 	c #505599",
"D 	c #D4BFC2",
"E 	c #E5D0CE",
"F 	c #E5D1CE",
"G 	c #E6D3D0",
"H 	c #E4CECB",
"I 	c #E2C7C2",
"J 	c #E3C8C3",
"K 	c #E3CCC8",
"L 	c #E4CDC9",
"M 	c #E5CECA",
"N 	c #E5CFCB",
"O 	c #D3BBBD",
"P 	c #434B96",
"Q 	c #061A82",
"R 	c #DFC5C0",
"S 	c #E6D2CF",
"T 	c #E5D2D0",
"U 	c #E6D4D2",
"V 	c #E6D2D0",
"W 	c #E5D1CF",
"X 	c #E1C6C1",
"Y 	c #E3C9C3",
"Z 	c #E1C5C0",
"` 	c #E1C6C0",
" .	c #E3CBC8",
"..	c #E3CCC9",
"+.	c #DEC1BD",
"@.	c #021681",
"#.	c #E1C8C4",
"$.	c #E1C7C2",
"%.	c #E4CFCC",
"&.	c #DFC2BC",
"*.	c #E2C6C0",
"=.	c #E3CDC9",
"-.	c #E2C9C5",
";.	c #E5D1CD",
">.	c #E3CDCA",
",.	c #5F629E",
"'.	c #E1C4BE",
").	c #E0C8C6",
"!.	c #1C2C89",
"~.	c #D4C2C7",
"{.	c #E1CAC9",
"].	c #CCBAC1",
"^.	c #0A1D83",
"/.	c #001580",
"(.	c #8882AA",
"_.	c #E2CAC7",
":.	c #E4C9C4",
"<.	c #E1C6BF",
"[.	c #E4CDCA",
"}.	c #23318B",
"|.	c #343F90",
"1.	c #29358C",
"2.	c #353F91",
"3.	c #A79AB3",
"4.	c #E5CBC6",
"5.	c #978EAF",
"6.	c #DFCACA",
"7.	c #D6C4C9",
"8.	c #192987",
"9.	c #E2C7C1",
"0.	c #0B1E84",
"a.	c #69689F",
"b.	c #112385",
"c.	c #6164A0",
"d.	c #7675A7",
"e.	c #7C78A7",
"f.	c #827DA8",
"g.	c #D1BCC0",
"h.	c #E2C8C2",
"i.	c #A292AB",
"j.	c #1D2C88",
"k.	c #C8B6C0",
"l.	c #BCACBB",
"m.	c #B8A9B9",
"n.	c #6F6FA4",
"o.	c #C1B1BE",
"p.	c #E0C5BF",
"q.	c #E1C5BE",
"r.	c #E4CECC",
"s.	c #071A83",
"t.	c #E4C9C2",
"u.	c #DFC4BD",
"v.	c #E3C8C2",
"w.	c #E5D3D1",
"x.	c #7370A3",
"y.	c #AB9CB2",
"z.	c #202E89",
"A.	c #2E3A8E",
"B.	c #1B2A88",
"C.	c #071A82",
"D.	c #E6D6D4",
"E.	c #B1A5BB",
"F.	c #CDB7BD",
"G.	c #C8B2BA",
"H.	c #081B82",
"I.	c #E6D0CC",
"J.	c #E2CBC8",
"K.	c #E1C7C3",
"L.	c #E2CCC9",
"M.	c #938AAD",
"N.	c #142586",
"O.	c #454C95",
"P.	c #C2ADB8",
"Q.	c #E1C5BF",
"R.	c #E3CAC7",
"S.	c #E2CCC7",
"T.	c #E2CCC8",
"U.	c #0D1F84",
"V.	c #CDB9BF",
"W.	c #E3C7C0",
"X.	c #E3D2D1",
"Y.	c #4B5197",
"Z.	c #E1C8C3",
"`.	c #E3CECA",
" +	c #E2CDC9",
".+	c #E3CFCC",
"++	c #051982",
"@+	c #8E87AC",
"#+	c #D6BDBD",
"$+	c #E0C2BC",
"%+	c #E3D0CF",
"&+	c #E4D0CC",
"*+	c #B5A6B9",
"=+	c #AFA0B3",
"-+	c #323D8F",
";+	c #E4D2D0",
">+	c #E5CFCC",
",+	c #0F2184",
"'+	c #2C388D",
")+	c #CDB5BA",
"!+	c #E6CECB",
"~+	c #DAC4C4",
"{+	c #E3C7C1",
"]+	c #54589B",
"^+	c #8E85A9",
"/+	c #E1CECC",
"(+	c #E4D1CE",
"_+	c #6E6CA1",
":+	c #031881",
"<+	c #E0C3BD",
"[+	c #E2C4BD",
"}+	c #E1C3BC",
"|+	c #E8D3CF",
"1+	c #B0A2B7",
"2+	c #E2CDCB",
"3+	c #E2C5BE",
"4+	c #E2C6BF",
"5+	c #E5CDC7",
"6+	c #E1C4BD",
"7+	c #E0C0B9",
"8+	c #E6D2CE",
"9+	c #E2C3BC",
"0+	c #E2C4BF",
"a+	c #E5CBC5",
"b+	c #E6D1CF",
"c+	c #E5D0CC",
"d+	c #E5CEC9",
"e+	c #E1C9C6",
"f+	c #E5CCC7",
"                              + @ # $ % % $ # @ &                               ",
"                        * = - ; > , @ ' ) ! , > ; - = ~                         ",
"                    { ] ; ^ * / ( _ : < [ } | ( 1 * 2 ; ] 3                     ",
"                  4 5 6 7 8 9 0 : a b c d d 9 e [ f g 7 h 5 i                   ",
"              j k l m n 0 o p q r s | c t u v w < < x y z A l k j               ",
"            B 5 C D b f E F G w H 9 I J c : r w K L L M s N O C 5 B             ",
"          P Q + R _ J N S T U V W d X Y Z ` [ r d H K  .b .._ +.+ Q B           ",
"        3 @.+ #._ 9 $.%.y T T V W H _ &.*.Z =.d K o o -.I [ | *.n + @.{         ",
"        k C z I | | -.F y ;.H >.F F L ,.h O >.9 ..F %.b J < u '.| ).C k         ",
"      4 !.~.K I | I r S y {.( } L %.].^./.(._.| y y M :.| :.t <.< L ( l i       ",
"    3 5 A [.M t 9 v W %.1 4 /.^.}.|.1././.4 |.|.2.2.h 3.4.t #.Z < N 0 5.5 3     ",
"    ] h 6.H K _ I [ W 7.8././././././././././././././.* b $.[ 9._ L | +.6 0.    ",
"  a.; 7 H H L M : y T ~.1.b.h c.& (.d.k /.{ 5.m (.e.f.g.| ` x h.[ d b X i.; ~   ",
"  j.^ 8 >.%.r H H T %.d 8 k.k.l.m.m.3.Q /.n.l.l.o.~.-.t : I < X  .-.p.q.z 2 =   ",
"  5 * | r %.< K W F r.f.2 0.s.k k k k /./.; k k Q 0.}.a.g.t.d I } [ u.v.w.n.5   ",
"x.; y.9 r >.v r %.%._.6 /./.^.$ > z.= 5 /.}.2.A.B.C././.c.J J v r u Z $.D.E.; d.",
"! b.F.t  .>.K r >.o d n./.}.].%.o p.G.H./.m I.d d 3././.f.J *  .J.K.*.v D.7.> ! ",
"# A.K.Y d H L.r r #.q M./.N.) c.c.a.c.k /.P ,.{ C O./.% P.X Q.d [.R.&.y D.w.A.# ",
"$ ! S.Z | r T.[.d | H E./././././././././././././././.U.V.h.W.J...I &.U X.T Y.$ ",
"% ) %.Z.X -.T.`  +o .+k.++$ 3.m.o.k.y.k /.@+D F.P.d./.8.#+J '...K Z $+D.%+W ) % ",
"% ) `.H I d T...>.&+y D 8.++*+V.o.*+(././.e.*+*+=+' /.2.K.| Q.J.-.| f D.W %+3 % ",
"$ @ o y *.t ..%.H e q L.-+/.H././././././././././././.+ u Z.Q.r < W.S ;+G >+Y.$ ",
"# A.[.%.v 9.[ ..r N _.L f././.^.z.-+A././.2 2 ,+/./.'+)+: I Z =.` &.U U G >.A.# ",
"! b.( y K $.d r J.H !+L ~+f.M.V.z } 1 /./.5.+.)+=+y.#+` Q.Q.h.d :.*.U W y ~.b.O.",
"x.; 1 } K f v -.r [.q r D P.=+A (.e.C /./.O.x.f.5.y.P.#.{+| :.-.I Q.w.;.y 1 ; x.",
"  5 * >.J.o Z f.O., B.Q /././././././././././././././.k l 2.]+n.^+y./+(+} ~ 5   ",
"  = ^ ~+L H 3.k /./././.5 ,+1.Y.c.+ ) /./.2.h z.,+/./././././././.% l.y g ^ j.  ",
"  * ; 7 o r c./././.i ' i.)+'.I 4.v y././.M.Y ..V.i._+A.:+/./././.) w.e 7 ; a.  ",
"    ] 6 J.q 1 2 -+(.O <+[+}+$+'.J I m.k /.i.|+S N 9.[ z 1+C % /.|.7.U 2+h ]     ",
"    ' 5 m r [.z +.3+4+[+W.5+6+7+*.4.F.H.; 1+G |+S N y J #.$.*+5.#+G %.A 5 '     ",
"      4 l ( [ N K [+[+N M N 0 {+'.q -.A.}./+G F U S H Y :.4.M x ` D.7.l 4       ",
"        k ]+).w =.q M S 8+;.e s 9+:.| )+V.U p e G N y _ !+_ H x v.X.]+k         ",
"        j @.d.L.E N S F y w e H 3+'.J 0+e y |+I.G >+>+: x u >+I X e.; j         ",
"          B Q d.%+F (+T S E N &+*.}+}+h.D.(+[.N w e M a+N a b+n + Q P           ",
"            P @.]+7.(+H |+>+y I.q x Y c+V e 0 q y |+L J M I.7.C 5 B             ",
"              { k l A {.e L I.p c+S F w >+[ 0 d+r V [.[ e+m !.k c.              ",
"                  4 5 h 7 z H H p y F %.o K _ f+: e g 7 6 5 4                   ",
"                    { 0.; 2 ~ E.~.y y K M f : g./ _+^ ; 0.,.                    ",
"                        * = - ; > A.! ) { @ , > ; - = ~                         ",
"                              & ! # $ % % $ # @ x.                              "};
