/* XPM */
static char * Blue3_xpm[] = {
"40 40 233 2",
"  	c None",
". 	c #000000",
"+ 	c #7372A5",
"@ 	c #474E97",
"# 	c #25328C",
"$ 	c #0F2185",
"% 	c #031781",
"& 	c #24328C",
"* 	c #6B6AA0",
"= 	c #1D2D89",
"- 	c #011580",
"; 	c #021781",
"> 	c #112385",
", 	c #2D398E",
"' 	c #474D96",
") 	c #595D9C",
"! 	c #5B5E9C",
"~ 	c #1F2E8A",
"{ 	c #6B6CA4",
"] 	c #5C5F9E",
"^ 	c #0B1E83",
"/ 	c #AD9FB6",
"( 	c #D3BDC0",
"_ 	c #E3CAC5",
": 	c #E4CAC5",
"< 	c #E4CBC7",
"[ 	c #E4CCC8",
"} 	c #E4CCC9",
"| 	c #E2C8C3",
"1 	c #D2BFC4",
"2 	c #26338C",
"3 	c #182887",
"4 	c #011680",
"5 	c #3A4291",
"6 	c #9F94B1",
"7 	c #D9C2C2",
"8 	c #E3C9C4",
"9 	c #E4CBC6",
"0 	c #E5CBC7",
"a 	c #E2C8C4",
"b 	c #E4C9C5",
"c 	c #E2CAC6",
"d 	c #E6D0CD",
"e 	c #E3CBC6",
"f 	c #DAC5C5",
"g 	c #A297B2",
"h 	c #172887",
"i 	c #041881",
"j 	c #1C2B89",
"k 	c #9991B1",
"l 	c #DFC6C3",
"m 	c #E4CECA",
"n 	c #E4CECB",
"o 	c #E5CDC9",
"p 	c #E3CBC7",
"q 	c #E3CAC4",
"r 	c #E3C9C5",
"s 	c #E4CAC6",
"t 	c #E2C9C4",
"u 	c #E6D1CE",
"v 	c #E5CCC8",
"w 	c #E5D0CD",
"x 	c #9C94B2",
"y 	c #1C2C88",
"z 	c #424A94",
"A 	c #021680",
"B 	c #505699",
"C 	c #D5BFC1",
"D 	c #E5D0CE",
"E 	c #E5D1CE",
"F 	c #E6D3D0",
"G 	c #E2C7C2",
"H 	c #E3C8C3",
"I 	c #E3CCC8",
"J 	c #E4CDC9",
"K 	c #E5CECA",
"L 	c #E5CFCB",
"M 	c #D3BBBC",
"N 	c #424B96",
"O 	c #061A82",
"P 	c #7772A3",
"Q 	c #DEC5C1",
"R 	c #E6D2CF",
"S 	c #E5D2D0",
"T 	c #E7D4D1",
"U 	c #E6D2D0",
"V 	c #E5D1CF",
"W 	c #E3CAC6",
"X 	c #E1C6C1",
"Y 	c #E3C9C3",
"Z 	c #E0C5BF",
"` 	c #E1C6C0",
" .	c #E3CBC8",
"..	c #E3CCC9",
"+.	c #DDC2BE",
"@.	c #7670A1",
"#.	c #021681",
"$.	c #E1C7C2",
"%.	c #E4CFCC",
"&.	c #E1C4BE",
"*.	c #E3C7C1",
"=.	c #E1C5C0",
"-.	c #E2C9C5",
";.	c #E2C6C0",
">.	c #E0C6C2",
",.	c #E5D1CD",
"'.	c #E3CDCA",
").	c #E0C4BD",
"!.	c #E2C7C1",
"~.	c #D5C4C9",
"{.	c #E0CAC8",
"].	c #E1C9C6",
"^.	c #948CAF",
"/.	c #192A88",
"(.	c #0F2184",
"_.	c #22308B",
":.	c #0C1F84",
"<.	c #0D2085",
"[.	c #2F3B8F",
"}.	c #C6B4BE",
"|.	c #E1C6BF",
"1.	c #011681",
"2.	c #E4CDCA",
"3.	c #DDCACB",
"4.	c #001580",
"5.	c #091C82",
"6.	c #B4A7BB",
"7.	c #988CAC",
"8.	c #5F629E",
"9.	c #E4D1CF",
"0.	c #D8C5C7",
"a.	c #8E87AC",
"b.	c #444C95",
"c.	c #9C92B0",
"d.	c #C2AFBB",
"e.	c #364090",
"f.	c #68689F",
"g.	c #E3CECB",
"h.	c #D8C3C5",
"i.	c #D5C2C7",
"j.	c #CFBBC1",
"k.	c #736FA1",
"l.	c #D7C1C3",
"m.	c #DCC5C3",
"n.	c #071A82",
"o.	c #122486",
"p.	c #102285",
"q.	c #152686",
"r.	c #E1C5BE",
"s.	c #DCC7C6",
"t.	c #E2CBC7",
"u.	c #E5CFCC",
"v.	c #E0C8C4",
"w.	c #041981",
"x.	c #2B378D",
"y.	c #2E3A8E",
"z.	c #0B1D83",
"A.	c #E4C9C2",
"B.	c #DFC3BE",
"C.	c #E3C8C2",
"D.	c #E5D3D1",
"E.	c #AB9CB3",
"F.	c #E2CBC8",
"G.	c #3D4693",
"H.	c #8A83A9",
"I.	c #B3A2B5",
"J.	c #E5CCC7",
"K.	c #E7D6D5",
"L.	c #E3CDCB",
"M.	c #9087AA",
"N.	c #9389AA",
"O.	c #0D1F83",
"P.	c #837EA9",
"Q.	c #E2C6C1",
"R.	c #E0C7C3",
"S.	c #485098",
"T.	c #E1C5BF",
"U.	c #E3CAC7",
"V.	c #DFC3BC",
"W.	c #E4D2D1",
"X.	c #E2CCC8",
"Y.	c #E1CCC8",
"Z.	c #4E5397",
"`.	c #6E6CA2",
" +	c #E3C7C0",
".+	c #DFC1BB",
"++	c #E6D4D3",
"@+	c #E3CECA",
"#+	c #E3D0CD",
"$+	c #E4D0D0",
"%+	c #494F96",
"&+	c #5C5D9A",
"*+	c #7D79A7",
"=+	c #27348B",
"-+	c #E6D4D1",
";+	c #DEC8C8",
">+	c #E6D0CC",
",+	c #E1C3BC",
"'+	c #CCB9C1",
")+	c #6F6FA3",
"!+	c #E2C4BE",
"~+	c #E1C2BB",
"{+	c #DDBFBA",
"]+	c #E1C7C1",
"^+	c #CBB4BA",
"/+	c #E2C4BD",
"(+	c #E6CECA",
"_+	c #E2CAC5",
":+	c #DBC2C0",
"<+	c #E4D1CE",
"[+	c #DAC4C4",
"}+	c #E5CECB",
"|+	c #E6CCC7",
"1+	c #C1ACB6",
"2+	c #E2C3BD",
"3+	c #DFC6C2",
"4+	c #54589A",
"5+	c #E7D3D0",
"6+	c #E2CDCB",
"7+	c #C5B2BC",
"8+	c #E6D1CD",
"9+	c #E5CDC7",
"0+	c #E7D1CE",
"a+	c #E4C9C4",
"b+	c #E3C9C2",
"c+	c #E6D0CE",
"d+	c #E6CFCC",
"e+	c #E4D0CE",
"f+	c #E5CBC5",
"g+	c #E6D1CF",
"h+	c #E5D0CC",
"i+	c #E5CEC9",
"j+	c #AFA1B7",
"                              + @ # $ % % $ & @ +                               ",
"                        * = - ; > , ' ) ! @ , > ; - ~ {                         ",
"                    ] ^ ; # * / ( _ : < [ } | 1 / * 2 ; ^ ]                     ",
"                  3 4 5 6 7 8 9 : 0 a b c c 8 d [ e f g 5 4 h                   ",
"              ! i j k l 9 m n o p q | b r s t u < < v w l x y i !               ",
"            z A B C a e D E F u n 8 G H b : p u I J J K q L M B A z             ",
"          N O P Q _ H L R S T U V W X Y Z ` [ p W n I  .a .._ +.@.O z           ",
"        ] #.P a _ 8 $.%.w S S U V n _ &.*.=.J W I m m -.G [ | ;.>.+ #.]         ",
"        i B l G | | -.E w ,.n '.E E J ).*.!.'.8 f ~.{.a H < s &.| ].B i         ",
"      3 y 1 I G | G p R ^./.(.h _._._._.3 (.$ (.:.^ <.[.}.Y r |.< J 1 j h       ",
"    ] 1.x 2.K r 8 t V 3.# 4.4.4.4.4.4.4.4.4.4.4.4.4.4.5.6.r a =.< L 9 7.4 8.    ",
"    ^ 5 {.n I _ G [ 9.0.h 4.% 8.a.x / k 4.4.b.g ^.k c.d.a $.[ !._ J | +.e.^     ",
"  f.; 6 n g.J K : w S h./.4.[.i.j.j.1 }.4.4.k.1 j.j.j.l.| ` v | [ c a X c.; {   ",
"  y # 7 '.%.p n n S %.m.~ 4.n.o.$ p.p.$ 4.4.5.p.$ p.$ q.^.G < X  .-.Z r.s.2 ~   ",
"  4 * | t.%.< I V E u.v.2 4.4.w.~ [.b.@ O 4.x.b.y.z.4.z.6.A.W G } [ B.C.D.{ 4   ",
"+ ; E.8 p '.t p %.%.[ F., 4.G.3.J Z e _ o.4.H...J s.c.I.J.H H t t.s =.$.K.6.; + ",
"@ > M r  .L.I p '.m W %.G.4.e.k ^.M.N.N.O.4.) N.P.P.N.N.I.$.Q  .F.R.Q.t K.~.o.S.",
"& y.R.Y W n ..p p a o w N 4.4.4.4.4.4.4.4.4.4.4.4.4.4.4.z.( T.c 2.U.V.w K.W.[.& ",
"$ S.X.=.| t.Y.2.W | n n B 4.$ Z.`.P.M.M.O 4.S.N.P.f.[.n.`.$  +F...G .+++W.S S.$ ",
"% ! %.| X -.X.@+..m #+..B 4.@ F._ t.$.Q 4.4.k.` T.X Q M Q H &...I Z V.K.$+V ] % ",
"% ! @+n G W X...'.%.w -.Z.4.~ C i.d.E.H.4.4.y.Z.b.%+&+k.M.I.M t.-.| e ++9.9.] % ",
"$ @ m w ;.r ..%.g.d o j.y 4.4.o.n.4.4.4.4.4.4.4.4.4.4.4.4.4.(.@ /  +R W.F u.S.$ ",
"& y.2.%.t !.[ ..t.L s.G.4.4.4.4.4.O _.S.f.*+H.7.7.P.@.&+=+4 4.4.(.I.-+++F '.y.& ",
"@ > 1 w I $.W p F.n j.; 4.4.$ B ^.}.;+n >+9 ;.,+V..+&.` +.f.4.4.4.P ++9.w i.> ' ",
"+ ; / } I e t -.p '+P.P.)+7.( [ -.K J 1 }.8 !+~+7.@.{+: *.$.x.4.4 g D.,.w / ; k.",
"  4 * '.F.m ]+8 Q x.4.%+| Z &+x.I.p ( q.:.^+/+^+5.4 7.(+T._+5 4.& :+R <+} { 4   ",
"  = # [+J }+|+G 6 #.4.&+Q.1+O 4.*+c h.q.4.c.2+T.5 4.k.K ;.3+(.4.4+_ T w f # y   ",
"  f.; 6 m p [ Q.b.4.x.^+&.1+n.O 1+t p 4+4 E.Y (+g 4.H.< A.E.4.4.P.o T d 6 ; f.  ",
"    z.5 F.o K ^+:.e.^+B./+{+q.%+G G t / n.1+5+R 6+5 / 9 8 Z.4.^ 7+8+T 6+G.^     ",
"    &+4 k p 2.a.%+M ;./+ +9+`.1+;.9 _ s P +.5+5+R {.%.H 1+5.4.! *.5+%.x 1.&+    ",
"      h j 1 [ s.t./+/+(+K L 9 *.&.o _+*./+5+F E T R n Y @.4.e.l.` K.~.y 3       ",
"        i 4+].0+J o K R R ,.8+q 2+a+| T.b+T n c+5+L w _ '+^.;+v C.W.4+i         ",
"        ! #.P ..D L R E w u 8+n r.&.H !+8+w 5+>+F u.u.: v s d+G X *+; !         ",
"          z O + $+E <+S R D L %.;.,+,+| K.e+2.L 0+d K f+L 0 g+l P O N           ",
"            N #.4+~.e+}+5+d+w >+o v Y h+U 8+9 o w 5+J H K >+~.B A z             ",
"              ] i j x {.d J >+n h+R E u u.[ 9 i+p U 2.[ ].k y i 8.              ",
"                  3 4 5 6 s.n n n w E %.m I _ J.: d f 6 5 4 /.                  ",
"                    ] ^ ; 2 { j+i.w w I K e : ( / `.# ; ^ 8.                    ",
"                        * = - ; o.y.S.) ] %+, > ; - = *                         ",
"                              + S.& $ % % $ & ' k.                              "};
