/* XPM */
static char * Blue1_xpm[] = {
"40 40 228 2",
"  	c None",
". 	c #000000",
"+ 	c #7572A3",
"@ 	c #474E95",
"# 	c #24328C",
"$ 	c #0F2185",
"% 	c #031781",
"& 	c #7473A5",
"* 	c #6969A0",
"= 	c #1D2D89",
"- 	c #011580",
"; 	c #021781",
"> 	c #122385",
", 	c #2D398D",
"' 	c #5A5D9C",
") 	c #5B5E9D",
"! 	c #474F97",
"~ 	c #6B6DA5",
"{ 	c #5E619E",
"] 	c #0B1E83",
"^ 	c #25338B",
"/ 	c #AE9FB4",
"( 	c #D2BDC1",
"_ 	c #E3CAC5",
": 	c #E4CAC5",
"< 	c #E4CBC7",
"[ 	c #E4CCC8",
"} 	c #E4CCC9",
"| 	c #E2C8C3",
"1 	c #D2BFC3",
"2 	c #AC9FB6",
"3 	c #26338C",
"4 	c #172887",
"5 	c #011680",
"6 	c #3A4391",
"7 	c #A195B0",
"8 	c #D9C2C2",
"9 	c #E3C9C4",
"0 	c #E4CBC6",
"a 	c #E5CBC7",
"b 	c #E2C8C4",
"c 	c #E4C9C5",
"d 	c #E2CAC6",
"e 	c #E6D0CD",
"f 	c #E3CBC6",
"g 	c #DBC5C6",
"h 	c #A398B3",
"i 	c #5C5E9B",
"j 	c #041881",
"k 	c #1C2B89",
"l 	c #9A92B2",
"m 	c #E1C7C2",
"n 	c #E4CECA",
"o 	c #E4CFCB",
"p 	c #E5CDC9",
"q 	c #E3CBC7",
"r 	c #E3CAC4",
"s 	c #E3C9C5",
"t 	c #E4CAC6",
"u 	c #E2C9C4",
"v 	c #E6D1CE",
"w 	c #E5CCC8",
"x 	c #E5D0CD",
"y 	c #DDC5C4",
"z 	c #1C2C88",
"A 	c #434A95",
"B 	c #021680",
"C 	c #505497",
"D 	c #E5D0CE",
"E 	c #E5D1CE",
"F 	c #E6D3D0",
"G 	c #E4CECB",
"H 	c #E2C7C2",
"I 	c #E3C8C3",
"J 	c #E3CCC8",
"K 	c #E4CDC9",
"L 	c #E5CECA",
"M 	c #E5CFCB",
"N 	c #D2BABC",
"O 	c #414A95",
"P 	c #424B96",
"Q 	c #061A82",
"R 	c #DFC5C1",
"S 	c #E6D2CF",
"T 	c #E5D2D0",
"U 	c #E7D4D1",
"V 	c #E5D1CF",
"W 	c #E3CAC6",
"X 	c #E1C6C1",
"Y 	c #E3C9C3",
"Z 	c #E1C5C0",
"` 	c #E2C6C0",
" .	c #E3CBC8",
"..	c #E3CCC9",
"+.	c #DDC2BF",
"@.	c #7470A2",
"#.	c #5C5F9E",
"$.	c #021681",
"%.	c #E1C8C4",
"&.	c #E4CFCC",
"*.	c #E4D0CD",
"=.	c #E1C4BE",
"-.	c #E3C6C1",
";.	c #E3CDC9",
">.	c #E2C9C5",
",.	c #50569A",
"'.	c #E5D1CD",
").	c #E3CDCA",
"!.	c #E0C4BD",
"~.	c #E3C7C1",
"{.	c #E2C7C1",
"].	c #E0C8C6",
"^.	c #E4CFCD",
"/.	c #E4C9C4",
"(.	c #E2CAC7",
"_.	c #E4C9C3",
":.	c #E1C6BF",
"<.	c #162686",
"[.	c #011681",
"}.	c #E4CDCA",
"|.	c #E5CDCA",
"1.	c #E1CDCB",
"2.	c #AFA1B7",
"3.	c #E5CBC6",
"4.	c #968DAE",
"5.	c #DDCACA",
"6.	c #E4D1CF",
"7.	c #7C7BAA",
"8.	c #8F87AC",
"9.	c #374190",
"0.	c #69689F",
"a.	c #9E94B1",
"b.	c #E2CAC5",
"c.	c #E5D0CC",
"d.	c #595B9B",
"e.	c #001580",
"f.	c #E2C8C2",
"g.	c #9D92B0",
"h.	c #E6D1CD",
"i.	c #66669E",
"j.	c #E5CFCC",
"k.	c #E5CECB",
"l.	c #E0C5BF",
"m.	c #E1C5BF",
"n.	c #DDC8C8",
"o.	c #1F2E89",
"p.	c #6B6BA2",
"q.	c #E2CBC7",
"r.	c #313B8F",
"s.	c #E5CCC7",
"t.	c #E4C8C2",
"u.	c #E3C8C2",
"v.	c #E5D3D1",
"w.	c #7270A3",
"x.	c #A99BB2",
"y.	c #E2CBC8",
"z.	c #E5CDC8",
"A.	c #E7D6D5",
"B.	c #B2A5BB",
"C.	c #112385",
"D.	c #E3CDCB",
"E.	c #E6D0CE",
"F.	c #E6D0CC",
"G.	c #E2C6C1",
"H.	c #D5C3C8",
"I.	c #485098",
"J.	c #2E3B8E",
"K.	c #E0C3BC",
"L.	c #E3CAC7",
"M.	c #DFC3BD",
"N.	c #2E3A8F",
"O.	c #E2CCC8",
"P.	c #3D4692",
"Q.	c #7B77A5",
"R.	c #8B84AA",
"S.	c #D6BDBD",
"T.	c #E6D4D3",
"U.	c #E3D2D1",
"V.	c #071B82",
"W.	c #BDACBB",
"X.	c #464C94",
"Y.	c #E0C9C6",
"Z.	c #E4CFCA",
"`.	c #102285",
" +	c #C5B4BF",
".+	c #CCBAC2",
"++	c #081B83",
"@+	c #4B5298",
"#+	c #E6CFCB",
"$+	c #E3C6C0",
"%+	c #E2C5C0",
"&+	c #7874A4",
"*+	c #DFC2BB",
"=+	c #E6D4D1",
"-+	c #E5CCC9",
";+	c #E2C4BE",
">+	c #E1C1BA",
",+	c #E3C5BE",
"'+	c #E0C1B9",
")+	c #DEBFB8",
"!+	c #E3C7C2",
"~+	c #E1C7C1",
"{+	c #E3C8C4",
"]+	c #E2C4BD",
"^+	c #E6CECA",
"/+	c #E4D1CE",
"(+	c #D9C3C4",
"_+	c #E6CCC7",
":+	c #D8C0C0",
"<+	c #E0C3BB",
"[+	c #C7B2BB",
"}+	c #29368C",
"|+	c #0B1D83",
"1+	c #E2C6BF",
"2+	c #DDC1BB",
"3+	c #041882",
"4+	c #867FA8",
"5+	c #E7D3D0",
"6+	c #E1CAC8",
"7+	c #CAB6BF",
"8+	c #E7D1CE",
"9+	c #E6D2CE",
"0+	c #E2C3BC",
"a+	c #E3C9C2",
"b+	c #E4D0CE",
"c+	c #E6D1CF",
"d+	c #E6D1D0",
"e+	c #D9C5C6",
"                              + @ # $ % % $ # @ &                               ",
"                        * = - ; > , @ ' ) ! , > ; - = ~                         ",
"                    { ] ; ^ * / ( _ : < [ } | 1 2 * 3 ; ] {                     ",
"                  4 5 6 7 8 9 0 : a b c d d 9 e [ f g h 6 5 4                   ",
"              i j k l m 0 n o p q r | c s t u v < < w x y l z j i               ",
"            A B C 1 b f D E F v G 9 H I c : q v J K K L r M N C B O             ",
"          P Q + R _ I M S T U T V W X Y Z ` [ q W G J  .b .._ +.@.Q O           ",
"        #.$.+ %._ 9 m &.*.T T T V G _ =.-.Z ;.W J n n >.H [ | ` X + $.#.        ",
"        j ,.y H | | >.E x '.G ).E E K !.~.{.).9 ..E &.b I < t =.| ].,.j         ",
"      4 z 1 J H | H q T x G K } K ^.G | /.< (.| x x L /.| _.s :.< K 1 k <.      ",
"    { [.l }.|.s 9 u V ^...W _ W } x 1.h 2.^.W J E e [ _ 3.s %.Z < M 0 4.5 {     ",
"    ] 6 5.G J _ H [ 6.x J : [ W f } 7.5 ; 8.f x ..K < a b m [ {._ K | +.9.]     ",
"  0.; a.G G K |.: x T ;.b.[ c.M f (.d.e.e., >.D J ..W 9 | ` w f.[ d b X g.; ~   ",
"  z ^ 8 ).&.q G G T &.d b.c.v h.f d i.e.e.4 g j.k.j.>.s : H < X  .>.l.m.n.3 o.  ",
"  5 p.| q.&.< J V E j.>.&.&.G &.[ | & e.e.r.).(    .s.9 : t.W H } [ !.u.v.~ 5   ",
"w.; x.9 q ).u q &.&.[ y.V F M x K l.7.e.e.,.v ..K z.t _.s.I I u q.t Z m A.B.; & ",
"! C.N s  .D.J q ).n W &.E.&.c.&.n l.8.e.e.~ F.W W s.G.=.9 I G  .y.m G.u A.H.> I.",
"# J.m Y W G ..q q %.p x c.c.;.M e < 7 e.e.7.K t 9 H Z K.9 X m.d }.L.M.*.A.v.N.# ",
"$ I.O.Z | q.y.B.d.O P.r.J.r.J.r.P.P r.e.e.# A A C C d.{ * + Q.R.8.x.S.T.U.T I.$ ",
"% ) &.| X >.7.V.e.e.e.e.e.e.e.e.e.e.e.e.e.e.e.e.e.e.e.e.e.e.e.e.e.5 7 A.6.V #.% ",
"% ) n G H W.; e.e.e.e.- V.> N.@ { * ~ j e.O Q.* C 9.C.; e.e.e.e.e.X.Y.T.6.6.#.% ",
"$ @ Z.x ` 2.$.5 `.9.& h  +].W [ J e .+++e.R.0 u.m.K.S.x.@+j e.$.P.N F U.F j.I.$ ",
"# N.}.&.u R h 2 ( k.(.K K < | [ #+k  +Q e.R.9 $+%+` ~.l.c x.&+h +.*+=+T.F ).N.# ",
"! C.1 x J m W q y.G k.K W 9 u < p } W.j e.R.%+K.K.*+=.` m.m.f.W /.$+T.6.x H.C.X.",
"w.; 2 } J f u >.q }.-+q W X | [ >.L B.[.e.R.;+>+,+'+)+: ~.| /.>.!+m.v.'.x 2 ; w.",
"  5 * ).y.n ~+{+{+q W I | X X {+%.q x.e.e.Q.]+'+'+)+K.^+m.b.t d /.f.T /+} p.5   ",
"  = ^ (+K k._+!+: w b !+G.Z | S.:+.+l e.e.Q.)+$+'+>+<+L %+| r 0 : _ U x g ^ z   ",
"  * ; a.n q [ G.| H I =.[+i.r.z <.] ++e.e.<.o.}+9.P.C g.t.l.W s.!+z.U e a.; 0.  ",
"    |+6 y.p L !+G.u.%+S.}+e.e.e.e.e.e.e.e.e.e.e.e.e.e.P.9 Z [ [ t.h.U 1.6 ]     ",
"    i 5 l q }.: =.;+1+2+r.e.e.> 6 d.p.&+@.p.{ P 3 3+j 4+%.f.J : ~.5+&.l [.i     ",
"      4 k 1 [ #+J ]+,+#+6+ +7+~.=.z.b.-.]+5+F E U 1..+Y /.3.L w ` A.H.z 4       ",
"        j ,.].8+;.z.L S 9+'.h.r 0+/.| m.a+U o E.5+M x _ k._ k.w u.U.,.j         ",
"        i $.&+..D M F E x v h.G ;+=.I ;+h.x 5+F.F j.j.: w t j.H X 7.; )         ",
"          O Q &+6.E /+T S D M &.` K.K.f.A.b+}.M 8+e L 3.M a c+y + Q P           ",
"            P $.,.H.b+k.5+j.x F.z.w Y c.T h.0 p x 5+K I L F.H.,.B O             ",
"              #.j k l 6+e K F.o c.S E v j.[ 0 L q d+}.[ (.l z j {               ",
"                  4 5 6 7 g G G o x E ^.n J _ s.: e e+a.6 5 4                   ",
"                    #.] ; 3 p.B.H.x x J L f : ( / p.^ ; ] {                     ",
"                        * = - ; > N.I.' #.! , > ; - = p.                        ",
"                              & I.# $ % % $ # @ w.                              "};
