/* XPM */
static char * Red0_xpm[] = {
"40 40 232 2",
"  	c None",
". 	c #000000",
"+ 	c #D16765",
"@ 	c #CA403F",
"# 	c #C52120",
"$ 	c #C10D0D",
"% 	c #BF0202",
"& 	c #C10E0D",
"* 	c #C5201F",
"= 	c #D26A69",
"- 	c #D05F5D",
"; 	c #C41B1A",
"> 	c #BF0101",
", 	c #C20F0F",
"' 	c #C62928",
") 	c #CD504F",
"! 	c #CD5150",
"~ 	c #C2100F",
"{ 	c #C41C1B",
"] 	c #D0615F",
"^ 	c #CE5352",
"/ 	c #C10A09",
"( 	c #CF5E5C",
"_ 	c #D99894",
": 	c #E0BCB8",
"< 	c #E4C9C5",
"[ 	c #E4CAC5",
"} 	c #E4CBC7",
"| 	c #E4CCC8",
"1 	c #E4CCC9",
"2 	c #E3C8C3",
"3 	c #DA9B97",
"4 	c #C52121",
"5 	c #C31514",
"6 	c #C83332",
"7 	c #D88E8B",
"8 	c #E2C1BD",
"9 	c #E3C9C4",
"0 	c #E4CBC6",
"a 	c #E5CBC7",
"b 	c #E2C8C4",
"c 	c #E2CAC6",
"d 	c #E6D0CD",
"e 	c #E3CBC6",
"f 	c #E3C4C0",
"g 	c #D99592",
"h 	c #C93433",
"i 	c #CD5250",
"j 	c #C00404",
"k 	c #C31818",
"l 	c #D88A87",
"m 	c #E3C6C0",
"n 	c #E4CECA",
"o 	c #E4CECB",
"p 	c #E5CDC9",
"q 	c #E3CBC7",
"r 	c #E3CAC4",
"s 	c #E2C8C3",
"t 	c #E3C9C5",
"u 	c #E4CAC6",
"v 	c #E2C9C4",
"w 	c #E6D1CE",
"x 	c #E5CCC8",
"y 	c #E5D0CD",
"z 	c #E2C7C2",
"A 	c #D88C8A",
"B 	c #BF0303",
"C 	c #C93B39",
"D 	c #BF0201",
"E 	c #CB4746",
"F 	c #E5D0CE",
"G 	c #E5D1CE",
"H 	c #E6D3D0",
"I 	c #E3CCC8",
"J 	c #E4CDC9",
"K 	c #E5CECA",
"L 	c #E5CFCB",
"M 	c #E0BBB7",
"N 	c #C93C3B",
"O 	c #C00606",
"P 	c #E1C5C0",
"Q 	c #E3CAC5",
"R 	c #E6D2CF",
"S 	c #E5D2D0",
"T 	c #E6D4D2",
"U 	c #E6D2D0",
"V 	c #E5D1CF",
"W 	c #E3CAC6",
"X 	c #E2C6C1",
"Y 	c #E3C9C3",
"Z 	c #E1C6C0",
"` 	c #E3CBC8",
" .	c #E3CCC9",
"..	c #E0C1BC",
"+.	c #D16664",
"@.	c #E3C7C3",
"#.	c #E4CFCC",
"$.	c #E3C8C5",
"%.	c #E5CFCC",
"&.	c #E1C4BE",
"*.	c #E3CDC9",
"=.	c #E2C9C5",
"-.	c #E2C6C0",
";.	c #CC4948",
">.	c #E2C9C3",
",.	c #C72C2B",
"'.	c #E2CDCA",
").	c #E0C4BD",
"!.	c #E3C7C1",
"~.	c #E2C7C1",
"{.	c #E3CDCA",
"].	c #CC4947",
"^.	c #C31919",
"/.	c #E0C0BB",
"(.	c #BF0000",
"_.	c #E4C9C4",
":.	c #E2CAC7",
"<.	c #E4C9C3",
"[.	c #E1C5BF",
"}.	c #E4CDCA",
"|.	c #E2C8C2",
"1.	c #E4CECC",
"2.	c #E3C4C1",
"3.	c #DFB2AF",
"4.	c #DDA8A4",
"5.	c #DC9F9D",
"6.	c #D8918E",
"7.	c #DA9F9B",
"8.	c #DCA19E",
"9.	c #DDACA8",
"0.	c #E3C7C2",
"a.	c #D78582",
"b.	c #DEB4AF",
"c.	c #D06462",
"d.	c #C83837",
"e.	c #C10A0A",
"f.	c #DFC2BC",
"g.	c #C7302F",
"h.	c #E3CECB",
"i.	c #C52625",
"j.	c #D6817E",
"k.	c #E5D0CC",
"l.	c #C00808",
"m.	c #C31A19",
"n.	c #C31717",
"o.	c #C10C0C",
"p.	c #CF5B5A",
"q.	c #D47875",
"r.	c #DB9D9A",
"s.	c #E4C6C3",
"t.	c #DFB5B1",
"u.	c #C52322",
"v.	c #CF5553",
"w.	c #E2C5C0",
"x.	c #E0C5BF",
"y.	c #E4C9C2",
"z.	c #E2C4BF",
"A.	c #E3CAC7",
"B.	c #DFC4BE",
"C.	c #E3C8C2",
"D.	c #E5D3D0",
"E.	c #C41C1C",
"F.	c #D3716F",
"G.	c #E5CECB",
"H.	c #CF5856",
"I.	c #E6D6D4",
"J.	c #DFB8B3",
"K.	c #D57D7B",
"L.	c #DCA39F",
"M.	c #E6D0CE",
"N.	c #C21313",
"O.	c #CC504E",
"P.	c #C83534",
"Q.	c #C00908",
"R.	c #C72A2A",
"S.	c #E2CBC8",
"T.	c #E0C7C2",
"U.	c #CA4241",
"V.	c #C10B0A",
"W.	c #DEAFAB",
"X.	c #E3CCC7",
"Y.	c #C10C0B",
"Z.	c #C31615",
"`.	c #C72D2C",
" +	c #DFC1BA",
".+	c #E4D2D0",
"++	c #CB4443",
"@+	c #DFB0AC",
"#+	c #E0C3BC",
"$+	c #E3CECA",
"%+	c #E2C0BD",
"&+	c #E2C2C0",
"*+	c #E1C7C3",
"=+	c #E4CDC8",
"-+	c #E6CDC9",
";+	c #E4D2CF",
">+	c #E4D1CE",
",+	c #E4CFCA",
"'+	c #E3C7C0",
")+	c #C00504",
"!+	c #E6D4D1",
"~+	c #E4C7C3",
"{+	c #E1C3BC",
"]+	c #C93E3D",
"^+	c #E5CCC9",
"/+	c #E0BFB9",
"(+	c #E4C7C1",
"_+	c #E5D1CD",
":+	c #C10909",
"<+	c #E2C4BD",
"[+	c #E6CECA",
"}+	c #E2CAC5",
"|+	c #CD4D4C",
"1+	c #E2C2BD",
"2+	c #E4CCC7",
"3+	c #E5CCC7",
"4+	c #E0C3BE",
"5+	c #E7D3D0",
"6+	c #E4CBC8",
"7+	c #E7D1CD",
"8+	c #E3C5BE",
"9+	c #E6CFCB",
"0+	c #E6CCC8",
"a+	c #E7D1CE",
"b+	c #E3C9C2",
"c+	c #E6D0CC",
"d+	c #E5CBC5",
"e+	c #E6D1CF",
"f+	c #E4CAC7",
"g+	c #E5CEC9",
"h+	c #C52220",
"i+	c #CB3F3D",
"                              + @ # $ % % & * @ =                               ",
"                        - ; > % , ' @ ) ! @ ' ~ % > { ]                         ",
"                    ^ / % # ( _ : < [ } | 1 2 : 3 - 4 % / ^                     ",
"                  5 > 6 7 8 9 0 [ a b < c c 9 d | e f g h > 5                   ",
"              i j k l m 0 n o p q r s < t u v w } } x y z A k B i               ",
"            C D E : b e F G H w o 9 z 2 < [ q w I J J K r L M E > C             ",
"          N O + P Q 2 L R S T U V W X Y P Z | q W o I ` b  .Q ..+.O C           ",
"        ^ % + @.Q 9 z #.$.%.S U V o Q &.m P *.W I n n =.z | s -.X + % ^         ",
"        j ;.z z >.s =.f ,.+ n '.G G J ).!.~.{.9  .G #.b 2 } u &.s 9 ].j         ",
"      5 ^./.I z s z =.! (.* 9 1 J #.o s _.} :.s y y K _.s <.t [.} J : k 5       ",
"    ^ > 7 }.K t 9 M ;.(.(.,.|.W 1 y 1.2.3.4.5.6.g g 6.7 _ 5.7.3 8.9.0.a.> ^     ",
"    / h ` o I b.c.5 (.% @ 9.| W t 6.d.e.(.(.(.(.(.(.(.(.(.(.(.(.(.O 4.f.g.e.    ",
"  ( % 7 o h.5.5 (.(.i.j.X | k.L 5.j (.(.(.l.m.n.(.(.> l.(.(.(.(.> + s X l % c.  ",
"  m.4 ..{.o C (.o.p.q.A _ r.4.s.t.,.u.v.7 t.P : , (.# t.r.] { j ^ w.x.[.@.u.{   ",
"  > - s q o 6 (.(.(.(.(.(.(.B , +.&.s p [ u {.:.g.(.;.9 [ y.z.M A.| B.C.D.+.>   ",
"+ % _ 9 q {.+.(.(.E.@ ] q.F.g.(.% 3 e Q x.e G.=.d.(.H.m < 2 2 v q u P z I.8.% = ",
"@ , J.t ` {.K.(.(.L.W #.M.#.v.(.N.b.z _ O.P.' i.Q.(.~ u.R.N + J.S.T.X v I.2.~ U.",
"4 ' T.Y W o a.(.(.) v.H.H.) e.(.H.} b.V.(.(.(.(.(.(.(.(.(.(.(.5 W.A.f.y I.D.R.4 ",
"& @ X.P s q 6.(.(.(.(.(.(.(.(.Y.W.o a.(.(.n.;.p.Z.(.`.K.F.* (.(.F.z  +T .+S ++$ ",
"B ! #.s X =.g (.(.N - q.j.= v.g Q :.F.(.l.@+q Z `.(.++x.~.a.(.(.K.P #+I..+V i B ",
"B ! $+o z W 3 (.o.3.4.t.%+%+&+*+*.` p.(.,.=+-+_.E.(.++X s b.(.(.a.s e I.;+>+^ B ",
"& @ ,+y -.t 8.(.> % (.(.(.(.o.`.q.-+++(.N | 0 C.E.(.++~.u s % (.F.'+H .+H %.U., ",
"4 ' }.#.v ~.8.(.(.)+{ 6 E ].' (.% a.g.(.N p 9 m { (.C x.[ 0.~ (.E f.!+T H {.' # ",
"@ , : y I z 5.(.o.@+~+J W 9 g (.> a.E.(.P.0 w.{+& (.d.Z [.[.N.(.,.m T ;+y %+, ]+",
"+ % 3 1 I e 7.(.V.&+^+q W /+U.(.u.@.; (.`.9 &.{+o.(.d.[ (+s u.(.u.[.D._+y 3 % c.",
"  > - {.S.n r.(.(.:+(.(.(.(.(.> K.q g.(.].z <+/+Y.(.d.[+[.}+|+(.].|.R >+1 ] >   ",
"  ; # 1+J G.8.(.(.(.e.Z.i.E., O.~+c 4.] @+w.{+J.:+(.C K w.s @+^ 3.Q !+y 2.4 m.  ",
"  ( % 7 n q L.(.(.= @+/+&...t.0.0 v q 2+9 m Y 8 :+(.g.} y.x.W 3+0.p T d 7 % p.  ",
"    / 6 a p J.:+5 t.w.4+<+{+f.&.2 z v p -.{+5+6+V.(.,.0 9 P | | C.7+T ^+P./     ",
"    ! > l q }.r.9.8+-.<+'+3+&  +m 0 Q 0 ..~.5+5+g.(.U.2 b |.I [ !.5+#.A > O.    ",
"      5 k : | 9+I <+8+9+K L 0 (+&.-+}+m <+5+H G A O a.Y _.0 K 0+Z I.&+k 5       ",
"        j ;.9 a+*.p K R w _+d r {+_.>.[.b+!+o M.5+@+G.Q G.Q G.0+C.5+|+j         ",
"        i % = | F L H G y w d o 8+&.@.z.d y 5+c+H %.%.[ x u %.z [.F.% i         ",
"          C O = a+G >+S R F L #.-.{+{+|.I.>+}.L a+d K d+L a e+z + O N           ",
"            N % ;.&+>+G.5+%.y c+p x Y k.U d 0 p y 5+J 2 K c+&+].D N             ",
"              ^ j k A f+d J c+o k.R G w %.6+0 g+q U }.| < A ^.j H.              ",
"                  5 > h 7 2.o o o y G #.n I Q 3+[ d &+7 6 > Z.                  ",
"                    ^ e.% 4 ] 5.8 d y I K e [ M 3 ] h+% / v.                    ",
"                        - ; > % ~ ' U.) ^ @ ' , % > ; -                         ",
"                              = U.4 & % % & * i++.                              "};
