/* XPM */
static char * Red1_xpm[] = {
"40 40 234 2",
"  	c None",
".  	c #000000",
"+ 	c #D16765",
"@ 	c #CA3F3E",
"# 	c #C52120",
"$ 	c #C10D0D",
"% 	c #BF0202",
"& 	c #C10E0D",
"* 	c #D16967",
"= 	c #D05F5E",
"- 	c #C31A1A",
"; 	c #BF0101",
"> 	c #C20F0F",
", 	c #C62726",
"' 	c #CD514F",
") 	c #CE5150",
"! 	c #CA4140",
"~ 	c #C2100F",
"{ 	c #C41B1A",
"] 	c #D16261",
"^ 	c #CE5452",
"/ 	c #C10A09",
"( 	c #CF5D5B",
"_ 	c #DA9895",
": 	c #E1BDB9",
"< 	c #E4C9C5",
"[ 	c #E4CAC5",
"} 	c #E4CBC7",
"| 	c #E4CCC8",
"1 	c #E4CCC9",
"2 	c #E3C8C3",
"3 	c #DB9B97",
"4 	c #D05E5C",
"5 	c #C52121",
"6 	c #C31515",
"7 	c #C83231",
"8 	c #D88D8B",
"9 	c #E2C1BD",
"0 	c #E3C9C4",
"a 	c #E4CBC6",
"b 	c #E5CBC7",
"c 	c #E2C8C4",
"d 	c #E2CAC6",
"e 	c #E6D0CD",
"f 	c #E3CBC6",
"g 	c #E2C4C0",
"h 	c #D8918E",
"i 	c #C83433",
"j 	c #C21414",
"k 	c #CD5250",
"l 	c #C00404",
"m 	c #C41919",
"n 	c #D78885",
"o 	c #E2C6C1",
"p 	c #E4CECA",
"q 	c #E4CECB",
"r 	c #E5CDC9",
"s 	c #E3CBC7",
"t 	c #E3CAC4",
"u 	c #E2C8C3",
"v 	c #E3C9C5",
"w 	c #E4CAC6",
"x 	c #E2C9C4",
"y 	c #E6D1CE",
"z 	c #E5CCC8",
"A 	c #E5D0CD",
"B 	c #E2C6C2",
"C 	c #D88C89",
"D 	c #C31818",
"E 	c #C00303",
"F 	c #C93B3A",
"G 	c #BF0201",
"H 	c #CC4847",
"I 	c #E5D1CE",
"J 	c #E6D3D1",
"K 	c #E2C7C2",
"L 	c #E3CCC8",
"M 	c #E4CDC9",
"N 	c #E5CECA",
"O 	c #E5CFCB",
"P 	c #E0B9B5",
"Q 	c #C93C3B",
"R 	c #C00606",
"S 	c #E1C5C0",
"T 	c #E3CAC5",
"U 	c #E6D2CF",
"V 	c #E5D2D0",
"W 	c #E7D4D1",
"X 	c #E6D2D0",
"Y 	c #E5D1CF",
"Z 	c #E3CAC6",
"` 	c #E1C6C1",
" .	c #E3C9C3",
"..	c #E1C6C0",
"+.	c #E3CBC8",
"@.	c #E3CCC9",
"#.	c #D06563",
"$.	c #CE5351",
"%.	c #E3C7C3",
"&.	c #E4CFCC",
"*.	c #E4D0CD",
"=.	c #E1C4BE",
"-.	c #E3CDC9",
";.	c #E2C9C5",
">.	c #E2C6C0",
",.	c #E1C6C2",
"'.	c #E2C9C3",
").	c #E5D1CD",
"!.	c #E3CDCA",
"~.	c #E0C4BD",
"{.	c #E3C7C1",
"].	c #E2C7C1",
"^.	c #E3C8C4",
"/.	c #C00403",
"(.	c #E2BFBB",
"_.	c #E4C9C4",
":.	c #E4C9C3",
"<.	c #E1C6BF",
"[.	c #E0BCB8",
"}.	c #E4CDCA",
"|.	c #E5CDCA",
"1.	c #BF0000",
"2.	c #D3706E",
"3.	c #E4D0CE",
"4.	c #E5D0CC",
"5.	c #E2C3BE",
"6.	c #D26B69",
"7.	c #E2C2BF",
"8.	c #E5CBC6",
"9.	c #E3CAC8",
"0.	c #E3CFCC",
"a.	c #DFB6B2",
"b.	c #D68380",
"c.	c #E0C2BC",
"d.	c #C7302F",
"e.	c #C10A0A",
"f.	c #E3CECB",
"g.	c #CF5A58",
"h.	c #E5CFCC",
"i.	c #E5CFCD",
"j.	c #D47A77",
"k.	c #E2C8C2",
"l.	c #E0C1BB",
"m.	c #DCA19E",
"n.	c #C83534",
"o.	c #C62928",
"p.	c #E6D1CD",
"q.	c #E1C5BF",
"r.	c #E1C5BE",
"s.	c #C41D1C",
"t.	c #DB9A97",
"u.	c #E5CCC7",
"v.	c #E4C9C2",
"w.	c #DFC5BF",
"x.	c #E3C8C2",
"y.	c #E5D3D1",
"z.	c #E2C4C1",
"A.	c #C5201F",
"B.	c #E5CCC9",
"C.	c #C93837",
"D.	c #E7D6D5",
"E.	c #E2CBC8",
"F.	c #CB4443",
"G.	c #C10909",
"H.	c #C10B0B",
"I.	c #DEABA7",
"J.	c #E1C3BE",
"K.	c #E0C7C2",
"L.	c #E1C9C4",
"M.	c #DDA8A4",
"N.	c #DFB2AF",
"O.	c #C72F2E",
"P.	c #DB9D9A",
"Q.	c #E3CAC7",
"R.	c #DFC2BC",
"S.	c #E2CCC8",
"T.	c #E1CCC8",
"U.	c #C21212",
"V.	c #E4D2D0",
"W.	c #E1C8C3",
"X.	c #E2C9C6",
"Y.	c #E3CECA",
"Z.	c #C72C2B",
"`.	c #E4D1CF",
" +	c #E4D0CC",
".+	c #E6CFCC",
"++	c #E4CDC8",
"@+	c #DFC3BD",
"#+	c #DEAFAA",
"$+	c #D57E7B",
"%+	c #BF0302",
"&+	c #C00505",
"*+	c #D67F7D",
"=+	c #E6D4D3",
"-+	c #E6CFCB",
";+	c #E2C5BF",
">+	c #E3C6C0",
",+	c #E6D3D0",
"'+	c #E5CECB",
")+	c #E0C4BF",
"!+	c #E5CAC5",
"~+	c #E6D4D1",
"{+	c #E6D0CC",
"]+	c #C00707",
"^+	c #CD5553",
"/+	c #DFBFB9",
"(+	c #E4C7C1",
"_+	c #E1C7C1",
":+	c #E1C2BD",
"<+	c #E2CAC5",
"[+	c #E6CCC7",
"}+	c #C52524",
"|+	c #DFB1AD",
"1+	c #E1C4BF",
"2+	c #CD4E4C",
"3+	c #E1C3BC",
"4+	c #E0BBB6",
"5+	c #E2C5BE",
"6+	c #E5CDC7",
"7+	c #E1C4BD",
"8+	c #E5CECC",
"9+	c #E3C6C2",
"0+	c #E7D3D0",
"a+	c #E2C3BD",
"b+	c #E6CDC9",
"c+	c #E3C9C2",
"d+	c #E6CECB",
"e+	c #E4C8C3",
"f+	c #C31919",
"g+	c #E5CEC9",
"h+	c #E2C3C0",
"i+	c #E6CFCD",
"j+	c #E4CAC4",
"k+	c #C52220",
"                              + @ # $ % % & # @ *                               ",
"                        = - ; % > , @ ' ) ! , ~ % ; { ]                         ",
"                    ^ / % # ( _ : < [ } | 1 2 : 3 4 5 % / ^                     ",
"                  6 ; 7 8 9 0 a [ b c < d d 0 e | f g h i ; j                   ",
"              k l m n o a p q r s t u < v w x y } } z A B C D E )               ",
"            F G H : c f A I J y q 0 K 2 < [ s y L M M N t O P H ; F             ",
"          Q R * S T 2 O U V W X Y Z `  .S ..| s Z q L +.c @.T 9 #.R F           ",
"        $.% * %.T 0 K &.*.V V X Y q T =.o S -.Z L p p ;.K | u >.o * % $.        ",
"        l H ,.K '.u ;.I A ).q !.I I M ~.{.].!.0 @.I &.c 2 } w =.u ^.H /.        ",
"      6 m (.L K u K s V (.7 h 1 M &.q u _.} d u A A N _.u :.v <.} M [.D j       ",
"    ^ ; 8 }.|.v 0 x Y q $.1.2.Z 1 A 3.4.e e 5.6.] 7.| T 8.v c S } O a n ; ^     ",
"    / i 9.q L T K | 0.2.l $ a.Z f 1 *.U y @.b.1.1.' } b c K | ].T M u c.d.e.    ",
"  ( % 8 q f.M |.[ } g.% 1.#.h.O f d i.X e @.j.1.1.6 v 0 u ..z k.| d c ` C % ]   ",
"  - 5 l.!.&.s q m.n.1.1.o.o y p.f d | h.w w j.1.1.e.9 v [ K } ` +.;.q.r.%.5 s.  ",
"  ; = u s &.t.F R 1.1.1.6.0.f.0.| u s r [ w n 1.1.s.u.0 [ v.Z K 1 | w.x.y.#.;   ",
"+ % _ 0 s z.$ 1.1.1.1.1.A.B.O A M q.f T q.f t.1.1.C.w :.u.2 2 x s w S K D.m.% 6.",
"! > a.v +.E.F.% G.H 5 1.H.: 4.&.p w.K T {.}.I.; 1.H o J.0 2 o +.E.K.o L.D.z.~ ! ",
"5 o.K  .Z q B M.N.c O.1.> 9 -.O N : a.I.h b.+ l 1., 2.j.8 P.I.[.| Q.R.*.D.y.o.5 ",
"& ! S.S u s T.}.Z u d.1.6 9 l.F.- U.& R 1.1.1.1.1.1.1.1.1.1.G.~ { 7 n y.V.V F.$ ",
"E ) &.W.` X.S.Y.-.p d.1.m z.6.1.1.1.1.1.{ Z.Z.l 1.$ e.1.1.1.1.1.1.G.m.D.`.Y k E ",
"E ) Y.q K Z S.@.!  +7 1.s.%.g.1.E n.b.(..+++5.U.1.* @+#+$+d.%+1.&+*+f =+`.3.$.E ",
"& @ p A >.v @.&.f.e O.1.5 c : $+P.-+p.4.| | (.U.1.* ;+].w W.h #.h >+,+V.J h.F.> ",
"5 o.}.&.x ].| @.s O O.1., } u | -+'+N e O r P $ 1.#.{.)+!+K S -...R.~+=+J !.o.# ",
"! > : A L K Z s E.q d.1., 0 x } r 1 O q {+a N.$ 1.g.=...q.q.k.Z _.>+=+`.A 9 > Q ",
"+ % t.1 L f x ;.s }.O.1.d.` W.| ;.N M L v 0 M.]+1.^+/+[ (+u _.;.K q.y.).A 3 % #.",
"  ; = !.E.p _+^.^.s O.1.C.` ` ^.c s ;.O Z K M.]+1.$.:+N q.<+w d _.k.V I 1 ] ;   ",
"  - # :+M '+[+K [ z }+1.n.S 2 S u.c |+8 2.4 ) E 1.7 ( 6.2.b.t.(.!+T W A z.5 m   ",
"  4 % 8 p s | o u K 5 1.Z.:+1+K _.g.]+1.1.1.1.1.1.1.1.1.1.1.1.2+K r W e 8 % (   ",
"    / 7 b r N (+o x.# 1.}+3+c.=.4+U.1.1.1.G.A., , , A.U.% 1.; 6.x.p.W B.n./     ",
"    ' ; C s }.[ J.5+5 1.O.6+7+l.>+m.$+n P.[.|..+8+z | l.P m._ 9+{.0+&.C ; '     ",
"      6 m : | -+L a+Z.1.g.O a (+=.b+<+o a+0+,+I W U q  ._.8.N z ..D.7.D 6       ",
"        l H ^.y -.r I.] 4+).p.t 3+_.'.q.c+W q e 0+O A T d+T '+z x.0+2+l         ",
"        ) % 6.| A O ,+I A y p.q 5+=.%.;+p.A 0+{+,+h.h.[ z w .+K ;+2.% k         ",
"          F R 6.e I I V U A O  +>.3+3+k.D.3.}.O y e N !+O b y B + R Q           ",
"            Q % H 7.3.'+0+.+A {+r z  .4.X p.a r i.0+M e+N {+7.H G Q             ",
"              $.l f+8 } e M {+q 4.U I y h.| a g+s X }.| < C m /.^+              ",
"                  6 ; i 8 9+q q q A I &.p L T u.[ e h+8 7 ; 6                   ",
"                    $.e.% 5 ] m.9 i+A L N f j+4+t.] k+% / ^                     ",
"                        = { ; % ~ o.! ' $.@ , > % ; { =                         ",
"                              6.! 5 & % % & A.@ +                               "};
