/* XPM */
static char * Red2_xpm[] = {
"40 40 231 2",
"  	c None",
". 	c #000000",
"+ 	c #D16664",
"@ 	c #CA403E",
"# 	c #C62120",
"$ 	c #C10E0D",
"% 	c #BF0202",
"& 	c #C52121",
"* 	c #D26A67",
"= 	c #D05F5D",
"- 	c #C41B1A",
"; 	c #BF0101",
"> 	c #C20F0E",
", 	c #C62726",
"' 	c #CD504E",
") 	c #CE5150",
"! 	c #CA4140",
"~ 	c #C2100F",
"{ 	c #D06462",
"] 	c #CE5452",
"^ 	c #C10A09",
"/ 	c #CF5C5A",
"( 	c #DA9995",
"_ 	c #E1BCB8",
": 	c #E4C9C5",
"< 	c #E4CAC5",
"[ 	c #E4CBC7",
"} 	c #E4CCC8",
"| 	c #E4CCC9",
"1 	c #E3C8C3",
"2 	c #DA9B97",
"3 	c #C31515",
"4 	c #C83332",
"5 	c #D88E8B",
"6 	c #E1C1BD",
"7 	c #E3C9C4",
"8 	c #E4CBC6",
"9 	c #E5CBC7",
"0 	c #E2C8C4",
"a 	c #E3CAC6",
"b 	c #E6D0CD",
"c 	c #E3CBC6",
"d 	c #E3C5BF",
"e 	c #D99491",
"f 	c #C21414",
"g 	c #CD5251",
"h 	c #C00404",
"i 	c #C41918",
"j 	c #D78885",
"k 	c #E3C6C0",
"l 	c #E4CECA",
"m 	c #E4CFCB",
"n 	c #E5CDC9",
"o 	c #E3CBC7",
"p 	c #E3CAC5",
"q 	c #E2C8C3",
"r 	c #E3C9C5",
"s 	c #E4CAC6",
"t 	c #E2C9C4",
"u 	c #E6D1CE",
"v 	c #E5CCC8",
"w 	c #E5D0CD",
"x 	c #E2C7C2",
"y 	c #D88C89",
"z 	c #C31717",
"A 	c #C00303",
"B 	c #CE5250",
"C 	c #C93A39",
"D 	c #BF0201",
"E 	c #CB4746",
"F 	c #E5D1CE",
"G 	c #E6D3D1",
"H 	c #E4CECB",
"I 	c #E3CCC8",
"J 	c #E4CDC9",
"K 	c #E5CECA",
"L 	c #E5CFCB",
"M 	c #E0BAB6",
"N 	c #C93C3B",
"O 	c #C00606",
"P 	c #D16866",
"Q 	c #E1C5C0",
"R 	c #E6D2CF",
"S 	c #E5D2D0",
"T 	c #E7D4D1",
"U 	c #E6D2D0",
"V 	c #E5D1CF",
"W 	c #E1C6C1",
"X 	c #E3C9C3",
"Y 	c #E2C6C0",
"Z 	c #E3CBC8",
"` 	c #E3CCC9",
" .	c #E3C7C3",
"..	c #E4CFCC",
"+.	c #E4D0CD",
"@.	c #E1C4BE",
"#.	c #E3CDC9",
"$.	c #E2C9C5",
"%.	c #E2C6C1",
"&.	c #CE5251",
"*.	c #CC4947",
"=.	c #E2C9C3",
"-.	c #E3CDCA",
";.	c #E0C4BD",
">.	c #E3C7C1",
",.	c #E2C7C1",
"'.	c #E3C8C4",
").	c #C31919",
"!.	c #E1BEBA",
"~.	c #BF0000",
"{.	c #E4C9C4",
"].	c #E2CAC7",
"^.	c #E4C9C3",
"/.	c #E1C6BF",
"(.	c #D88D8B",
"_.	c #E4CDCA",
":.	c #E3C9C6",
"<.	c #C41D1C",
"[.	c #E4D1CE",
"}.	c #E5D0CC",
"|.	c #E6D0CE",
"1.	c #E1C8C4",
"2.	c #E1C8C3",
"3.	c #E0C1BC",
"4.	c #C7302F",
"5.	c #C10A0A",
"6.	c #E3CECB",
"7.	c #C52625",
"8.	c #C72C2B",
"9.	c #E5CFCD",
"0.	c #D67F7C",
"a.	c #C4201F",
"b.	c #CE5554",
"c.	c #CB4644",
"d.	c #D26D6B",
"e.	c #CA4241",
"f.	c #C00808",
"g.	c #D36E6B",
"h.	c #E2C2BE",
"i.	c #D37472",
"j.	c #E0C5BF",
"k.	c #E1C5BF",
"l.	c #C41C1B",
"m.	c #E4CCCA",
"n.	c #C93E3D",
"o.	c #D47B78",
"p.	c #DEB0AB",
"q.	c #D26B6A",
"r.	c #DFC4BE",
"s.	c #E3C8C2",
"t.	c #E5D3D1",
"u.	c #E2C8C5",
"v.	c #C21212",
"w.	c #D0615F",
"x.	c #DEAEAA",
"y.	c #E5CDC8",
"z.	c #E5CCC7",
"A.	c #DCA5A1",
"B.	c #E7D6D5",
"C.	c #DDA09E",
"D.	c #DFB8B4",
"E.	c #E3CDCB",
"F.	c #DA9A98",
"G.	c #E2C3C0",
"H.	c #E2C8C6",
"I.	c #E2C0BC",
"J.	c #DFB4B1",
"K.	c #DFB1AE",
"L.	c #D68380",
"M.	c #E0C7C2",
"N.	c #E1C9C4",
"O.	c #C62929",
"P.	c #D6807D",
"Q.	c #DFB3AF",
"R.	c #E3CAC7",
"S.	c #DFC3BC",
"T.	c #C20E0D",
"U.	c #E2CCC8",
"V.	c #E1CCC8",
"W.	c #DB9D9A",
"X.	c #CC504F",
"Y.	c #C51F1F",
"Z.	c #DEC1BB",
"`.	c #C00706",
" +	c #E4D2D0",
".+	c #BF0303",
"++	c #E2C9C6",
"@+	c #CC514F",
"#+	c #DFBBB7",
"$+	c #E1C3BC",
"%+	c #E3D0CE",
"&+	c #D3716E",
"*+	c #CB3F3D",
"=+	c #C00707",
"-+	c #E6D4D3",
";+	c #E4CFCA",
">+	c #E4CCC7",
",+	c #C93635",
"'+	c #D05E5D",
")+	c #E6D3D0",
"!+	c #E5CFCC",
"~+	c #E5CECB",
"{+	c #E6D4D1",
"]+	c #C42220",
"^+	c #CB4F4D",
"/+	c #E5CCC9",
"(+	c #DFC0BA",
"_+	c #DEBEB8",
":+	c #E5D1CD",
"<+	c #E2CBC8",
"[+	c #E1C7C1",
"}+	c #E2C8C2",
"|+	c #E7D1CD",
"1+	c #E1C3BE",
"2+	c #E2C5BE",
"3+	c #E0C1BB",
"4+	c #E2C5C2",
"5+	c #E4CAC7",
"6+	c #E7D3D0",
"7+	c #E1C4BD",
"8+	c #E2CAC5",
"9+	c #E6D1CD",
"0+	c #E3C9C2",
"a+	c #E6CECB",
"b+	c #CD4D4B",
"c+	c #E2C5BF",
"d+	c #E6D0CC",
"e+	c #E5CBC5",
"f+	c #E6D1CF",
"g+	c #E5CEC9",
"h+	c #E4CAC4",
"                              + @ # $ % % $ & @ *                               ",
"                        = - ; % > , @ ' ) ! , ~ % ; - {                         ",
"                    ] ^ % & / ( _ : < [ } | 1 _ 2 = & % ^ ]                     ",
"                  3 ; 4 5 6 7 8 < 9 0 : a a 7 b } c d e 4 ; f                   ",
"              g h i j k 8 l m n o p q : r s t u [ [ v w x y z A B               ",
"            C D E _ 0 c w F G u H 7 x 1 : < o u I J J K p L M E ; C             ",
"          N O P Q p 1 L R S T U V a W X Q Y } o a H I Z 0 ` p 6 + O C           ",
"        ] % P  .p 7 x ..+.S S U V H p @.k Q #.a I l l $.x } q Y %.P % &.        ",
"        h *.W x =.q $.F _ j  .-.F F J ;.>.,.-.7 ` F ..0 1 [ s @.q '.*.h         ",
"      3 ).!.I x q x o S N ~.= | J ..H q {.[ ].q w w K {.q ^.r /.[ J _ i f       ",
"    ] ; (._.K r 7 t V :.<.~.<.a | w [.}.b |.a I F b } p 8 r 1.Q [ L 8 j ; ]     ",
"    ^ 4 Z H I p x } [.| & ~.- a c | +.R u 2.0 w ` J [ 9 0 x } ,.p J q 3.4.5.    ",
"  / % 5 H 6.J K < w S #.7.~.8.L c ].9.U 0.a.8./ b.b.] b.*.c.*.b.!.a 0 W y % {   ",
"  ).& 3.-...!.d.e.C 8.8.f.~.5.8.8.4.g.h.h ~.~.~.~.~.~.~.~.~.~.~.i.$.j.k  .& l.  ",
"  ; = q o m.n.~.~.~.~.~.~.~.~.~.~.A o.p.~.~.4 d.d.d.g.q.g.4.~.~.b.} r.s.t.+ ;   ",
"P % ( 7 o u.& ~.; v.*.P f ~.7.w.+ ( c x.~.h x.` J y.s ^.z.A.~.~.{ s Q x B.C.% q.",
"@ > D.r Z E.F.d.5 G.a H.<.~.B ..l j.x x.~.O C._ !.I.J.K.D.A.~.~.L.M.%.N.B.G.~ e.",
"& O.M.X a H ` o o 1.J P.; ~.) M (.6 ,.Q.~.~.h v.f v.5.5.5.^ ~.~.j R.S.+.B.t.O.& ",
"T.! U.Q q o V._.a q W.> ~.~.X.Y.~.) Z.Q.~.~.~.`.$ T.$ 5.~.~.~.~.j x Z.t  +S e.$ ",
".+) ..2.W ++U.l #.2 T.~.~.~.@+O.~.A W.p.~.O ( #+#+_ !.#+M D.~.~.j Q $+B.%+V g .+",
"A ) l H x a U.r &+h ~.z 4 ~.' J.*+A E p.~.=+K.{.r.k.r.%.q q ~.~.o.q c -+[.[.] A ",
"T.@ ;+w Y r p.@ ; ~.=+e E ~.@+>+R.e ,+A.~.A '+P.0.o.P.P.L.P.~.~.i.k )+ +G !+e.> ",
"& O._...t L.T.~.~.% i.J C ~.' } L ~+:.Q.~.~.~.~.~.~.~.~.~.~.~.~.i.Z.{+-+G -.O.& ",
"! > _ w I ]+~.~.=+i.K J ,+~.' [ n | L K.~.; , @ ^+@+B *.! ,+~.~.i.k -+[.w I.> n.",
"P % F.| I / =+C W.J /+o ,+~.^+} $.K J x.~.=+A.$+d (+_+< >.q ~.~.&+k.t.:+w 2 % { ",
"  ; = -.<+l [+'.'.o a 1 7.~.' '.1.o $.C.~.`.A.(+(+_+$+K k.3.~.~.i.}+S [.| w.;   ",
"  - & h.J ~+z.x < v 0 Y & ~.' Q z.a Z e ~.~.b.5 y y 5 ( L.4.~.~.&+p T w G.& ).  ",
"  '+% 5 l o } %.q x 1 _+- ~.c.x 8 t o 0.~.~.~.~.~.~.~.~.~.~.~.~.P y.T b 5 % /   ",
"    ^ 4 9 n K  .%.s.Y D.3 ~.C @.1 x t 5 ~.~.~.; T.~ <.l.- - ~ 3 C.|+T /+,+^     ",
"    @+; y o _.< 1+2+Y _ - ~.E 3+k 8 p  .* o.M 4+:  .5+h.1+$+G.h.>.6+..y ; X.    ",
"      3 i _ } L I 7+2+L w.^ 5 >.@.y.8+k 7+6+)+F T R H X {.8 K v Y B.G.i 3       ",
"        h *.'.u #.y.K R L _ 9+p $+{.=.k.0+T m |.6+L w p a+p ~+v s.6+b+h         ",
"        B % * } w L )+F w u 9+H 2+@  .c+9+w 6+d+)+!+!+< v s !+x c+&+% g         ",
"          C O q.|.F [.S R w L ..Y $+$+}+B.[._.L u b K e+L 9 f+x P O N           ",
"            N % *.h.[.~+6+!+w d+y.v X }.U 9+8 n 9.6+J 1 K d+h.*.D N             ",
"              &.h ).(.5+b J d+m }.R F u !+} 8 g+o U _.} : y ).h b.              ",
"                  3 ; 4 5 4+H H m w F ..l I p z.< b G.5 4 ; 3                   ",
"                    &.5.% & w.C.h.b w I K c h+_ 2 w.]+% ^ b.                    ",
"                        = - ; % ~ O.! X.&.@ , > % ; - =                         ",
"                              * e.& $ % % $ a.*++                               "};
