/* XPM */
static char * Red3_xpm[] = {
"40 40 232 2",
"  	c None",
". 	c #000000",
"+ 	c #D16765",
"@ 	c #CA3F3E",
"# 	c #C52121",
"$ 	c #C10E0D",
"% 	c #BF0202",
"& 	c #C5201F",
"* 	c #D26A68",
"= 	c #D05F5E",
"- 	c #C41B1A",
"; 	c #BF0101",
"> 	c #C20F0F",
", 	c #C62827",
"' 	c #CD504F",
") 	c #CE514F",
"! 	c #CB4140",
"~ 	c #C2100F",
"{ 	c #D06260",
"] 	c #CE5352",
"^ 	c #C10A09",
"/ 	c #CF5E5C",
"( 	c #DA9996",
"_ 	c #E1BBB8",
": 	c #E4C9C5",
"< 	c #E4CAC5",
"[ 	c #E4CBC7",
"} 	c #E4CCC8",
"| 	c #E4CCC9",
"1 	c #E3C8C3",
"2 	c #E1BDB9",
"3 	c #DB9B98",
"4 	c #C52221",
"5 	c #C31514",
"6 	c #C83331",
"7 	c #D88D8B",
"8 	c #E2C1BE",
"9 	c #E3C9C4",
"0 	c #E4CBC6",
"a 	c #E5CBC7",
"b 	c #E2C8C4",
"c 	c #E3CAC6",
"d 	c #E6D0CD",
"e 	c #E3CBC6",
"f 	c #E3C5C0",
"g 	c #D89390",
"h 	c #C93433",
"i 	c #C31414",
"j 	c #CD5250",
"k 	c #C00404",
"l 	c #C31818",
"m 	c #D78A86",
"n 	c #E3C6C1",
"o 	c #E4CECA",
"p 	c #E4CFCB",
"q 	c #E5CDC9",
"r 	c #E3CBC7",
"s 	c #E3CAC4",
"t 	c #E2C8C3",
"u 	c #E4CAC6",
"v 	c #E2C9C4",
"w 	c #E6D1CE",
"x 	c #E5CCC8",
"y 	c #E5D0CD",
"z 	c #E2C7C2",
"A 	c #D88C89",
"B 	c #C00303",
"C 	c #CA3B3A",
"D 	c #BF0201",
"E 	c #CB4645",
"F 	c #E5D0CE",
"G 	c #E5D1CE",
"H 	c #E7D3D1",
"I 	c #E4CECB",
"J 	c #E3CCC8",
"K 	c #E4CDC9",
"L 	c #E5CECA",
"M 	c #E5CFCB",
"N 	c #DFBAB5",
"O 	c #C93C3B",
"P 	c #C00606",
"Q 	c #D26866",
"R 	c #E1C5C0",
"S 	c #E3CAC5",
"T 	c #E6D2CF",
"U 	c #E5D2D0",
"V 	c #E6D2D0",
"W 	c #E1C6C1",
"X 	c #E3C9C3",
"Y 	c #E1C6C0",
"Z 	c #E3CBC8",
"` 	c #E3CCC9",
" .	c #E2C0BC",
"..	c #D16563",
"+.	c #E4CFCC",
"@.	c #E4D0CD",
"#.	c #E1C4BE",
"$.	c #E3CDC9",
"%.	c #E2C9C5",
"&.	c #E2C6C0",
"*.	c #E2C6C1",
"=.	c #CB4847",
"-.	c #E2C9C3",
";.	c #DEAFAB",
">.	c #E3CDCA",
",.	c #DFC4BD",
"'.	c #E3C7C0",
").	c #E2C7C1",
"!.	c #E3C8C4",
"~.	c #C00403",
"{.	c #C31919",
"].	c #E0BEBA",
"^.	c #DDA3A0",
"/.	c #C10807",
"(.	c #D98C88",
"_.	c #D8908D",
":.	c #D6807D",
"<.	c #D68684",
"[.	c #E2C4C0",
"}.	c #E1C5BF",
"|.	c #E0BCB8",
"1.	c #C21414",
"2.	c #E4CDCA",
"3.	c #E5CDCA",
"4.	c #BF0000",
"5.	c #D57E7B",
"6.	c #CE5654",
"7.	c #D47976",
"8.	c #E3CAC8",
"9.	c #DFB7B3",
"0.	c #C52322",
"a.	c #C62928",
"b.	c #C62B2B",
"c.	c #C73130",
"d.	c #C83534",
"e.	c #CA3E3D",
"f.	c #E1B8B4",
"g.	c #E0C3BC",
"h.	c #C10A0A",
"i.	c #CF5D5B",
"j.	c #E3CECB",
"k.	c #E2C2BE",
"l.	c #C31615",
"m.	c #E5D0CC",
"n.	c #C62524",
"o.	c #E4C7C4",
"p.	c #D26E6C",
"q.	c #C31A19",
"r.	c #E0C1BB",
"s.	c #C83433",
"t.	c #E6D0CC",
"u.	c #C7302F",
"v.	c #D05A59",
"w.	c #C00302",
"x.	c #C93B3A",
"y.	c #C82F2E",
"z.	c #E0C5BF",
"A.	c #E1C5BE",
"B.	c #E2CBC7",
"C.	c #DEB3AE",
"D.	c #DDA6A2",
"E.	c #E3C8C2",
"F.	c #E5D3D0",
"G.	c #D99894",
"H.	c #D3716E",
"I.	c #D6827F",
"J.	c #E7D6D5",
"K.	c #DB9C99",
"L.	c #E2BFBB",
"M.	c #E1C3BE",
"N.	c #E2CBC8",
"O.	c #E0C7C2",
"P.	c #E1C9C4",
"Q.	c #CB4342",
"R.	c #DFB1AD",
"S.	c #C83836",
"T.	c #C93E3C",
"U.	c #DCA09D",
"V.	c #E3CAC7",
"W.	c #DFC1BC",
"X.	c #CA4140",
"Y.	c #E2CCC8",
"Z.	c #E1CCC8",
"`.	c #CC4C4A",
" +	c #DFC2BB",
".+	c #E6D4D3",
"++	c #E4D2D0",
"@+	c #BF0303",
"#+	c #E2C9C6",
"$+	c #C00505",
"%+	c #DEACA9",
"&+	c #C10B0A",
"*+	c #E3D0CE",
"=+	c #CD5150",
"-+	c #E1C9C6",
";+	c #E4C8C3",
">+	c #E3C7C2",
",+	c #DDAAA5",
"'+	c #C00707",
")+	c #DFB5B1",
"!+	c #E4D1CE",
"~+	c #DFB9B5",
"{+	c #C41D1D",
"]+	c #C10C0C",
"^+	c #E2C5BE",
"/+	c #E5CFCC",
"(+	c #E0BBB7",
"_+	c #DB9E9A",
":+	c #DFC0BA",
"<+	c #C41817",
"[+	c #E5D1CD",
"}+	c #C21211",
"|+	c #E5CECB",
"1+	c #E5CCC7",
"2+	c #E2CAC5",
"3+	c #E7D3CF",
"4+	c #DEBEB7",
"5+	c #E4C7C1",
"6+	c #E5CDC8",
"7+	c #E6D3D0",
"8+	c #E4C9C4",
"9+	c #E6D1CD",
"0+	c #E1C3BC",
"a+	c #E6D0CE",
"b+	c #E6CECB",
"c+	c #E2C4BF",
"d+	c #E5CBC5",
"e+	c #E6D1CF",
"f+	c #E5CFCD",
"g+	c #E4CBC8",
"h+	c #E5CEC9",
"i+	c #E4CAC4",
"                              + @ # $ % % $ & @ *                               ",
"                        = - ; % > , @ ' ) ! , ~ % ; - {                         ",
"                    ] ^ % # / ( _ : < [ } | 1 2 3 / 4 % ^ ]                     ",
"                  5 ; 6 7 8 9 0 < a b : c c 9 d } e f g h ; i                   ",
"              j k l m n 0 o p q r s t : 9 u v w [ [ x y z A l B j               ",
"            C D E 2 b e F G H w I 9 z 1 : < r w J K K L s M N E ; C             ",
"          O P Q R S 1 M T U H V G c W X R Y } r c I J Z b ` S  ...P C           ",
"        ] % Q 1 S 9 z +.@.U U V G I S #.n R $.c J o o %.z } t &.*.Q % ]         ",
"        k =.W z -.t %.G y 3 ;.>.G G K ,.'.).>.9 ` G +.b 1 [ u #.t !.=.~.        ",
"      5 {.].J z t z r T ^./.=.| n g A m m (.A m 7 _.7 :.<.g [.}.[ K |.l 1.      ",
"    ] ; 7 2.3.9 9 v G _ 4 4.5.c 6.4.4.4.4.4.4.4.4.4.4.4.4.4.7.R [ M 0 <.; ]     ",
"    ^ h 8.I J S z } 9.0.4.0.f 1 a.4.4.- C O b.4.4.- c.d.e.6.f.).S K t g.c.h.    ",
"  i.% 7 I j.K 3.k.:.l.4./.3 m.a n.4.& o.d ` ^.; 4.p.c 9 t Y x t } c b W (.% {   ",
"  q.# r.>.+.N Q # ; 4.4.s.2.w t.u.4.l.v.v.=.e.w.4.a.x.y.6 E _ W Z %.z.A.1 0.-   ",
"  ; = t B.+.=.4.4.4.4.4.P C.j.+.h 4.4.4.4.4.4.4.4.4.4.4.4.; D.z | } ,.E.F...;   ",
"+ % G.9 r >.p.% 4.q.u.4.4.D.M y E 4.l p.H.I.<.^ 4.= I.6.u.H.1 v B.u R z J.^.% * ",
"! > 9.9 Z >.c K.7  .{ 4.4.D.m.+.E 4.6 S '.2.L.$ 4.(.*.M.9 1 *.Z N.O.*.P.J.[.~ Q.",
"# a.O.X c I ` r r b * 4.4.R.$.M E 4.$ d.d.C u.B 4.n.d.d.S.T.U.c 2.V.W.@.J.F.b.# ",
"$ X.Y.R t B.Z.2.c t H.4.4.C.B.$.`.4.4.4.4.4.4.4.4.4.4.4.4.; g N.` z  +.+++U Q.$ ",
"@+) +.t W #+Y.o $.o H.4.$+f.| N.Q.4.6 _.;.9.%+&+4.* U.p.X.H.#.` J R g.J.*+G j @+",
"B =+o I z c Y.` >.+.:.4.h._ J -+T.4.y.;+3.>+,+'+4.p.)+N ].M.}.N.%.t e .+!+F ] B ",
"$ @ o y &.9 ` +.j.d :.4.&+~+c  .{+4.4.n.b.q.]+4.4.4.4.% > & S.* D.^+T ++H /+Q.$ ",
"# a.2.+.v ).} ` B.M 5.4.i L.*.C 4.4.4.4.4.$+l.0.c.c.0.5 k 4.4.4.k E /+.+H >.a.# ",
"! > 2 y J z c r N.I 7.4.i 2 ].B 4.4.l.=+(.R.(+ .g  +g.(+,+5.n.4.4.; <.!+y  .> T.",
"+ % 3 | J e v %.r 2.p.4.i N t K.5._+[.z k.9 #.,+_+:+:+<..  .f.<+4.4.+ [+y 3 % ..",
"  ; = >.N.o ).!.!.r p.4.i N <.b.g r ].- ]+_+)+}+; g )+~ 4.g u `.4.'+9.!+| { ;   ",
"  - # k.K |+1+>+< x { 4.i ~+6 4.b.2+_ &+4.7.C.}+4.Q :+Q.4.A '., 4.x.V y f 4 q.  ",
"  / % 7 o r } *.t z / 4.1.)+7.; ~ (+r v.4.5.X g ]+`.&.f.- g ,+B 4.* .+d _.% i.  ",
"    ^ 6 a q L >+*.E.' 4.&+;  +/ B D.v f n.m 3+T K.) } 0 ( R.) 4.w.D.H | d.^     ",
"    ' ; (.r 2.< M.^+6.4.~ L.#.4+..^.S 0 ,+C.H 3+T u y 1 b %+$+4.@ w +.A ; '     ",
"      5 l 2 } M J #.(.k @ o 0 5+#.6+2+n #.3+7+G H T I X 8+] 4.4 C.J.k.l 5       ",
"        k =.!.w $.6+q %+f [+9+s 0+8+-.}.X H p a+H M y S b+I.= f.E.H `.k         ",
"        j % * } F M T G y w 9+I ^+#.1 c+9+y H t.7+/+/+< x u /+z }.H.% j         ",
"          x.P * a+G !+U T F M +.&.0+0+t J.F 2.M w d L d+M a e+z + P O           ",
"            O % `.8 F |+H /+y t.6+x X m.V 9+0 q f+H K ;+L t.k.=.D C             ",
"              ] k l 7 u d K t.p m.T G w /+g+0 h+r V 2.} : A {.~.6.              ",
"                  5 ; s.7 n I I p y G +.o J S 1+< d [.7 6 ; l.                  ",
"                    ] h.% # { U.8 d y J L e i+_ 3 { 4 % ^ 6.                    ",
"                        = - ; % ~ a.! ' ] @ , > % ; - =                         ",
"                              * Q.# $ % % $ & @ ..                              "};
