/* XPM */
static char * Red4_xpm[] = {
"40 40 234 2",
"  	c None",
". 	c #000000",
"+ 	c #D16865",
"@ 	c #CA403F",
"# 	c #C62120",
"$ 	c #C10D0D",
"% 	c #BF0202",
"& 	c #C10E0D",
"* 	c #C52120",
"= 	c #D26967",
"- 	c #D05F5E",
"; 	c #C31A19",
"> 	c #BF0101",
", 	c #C20F0F",
"' 	c #C62827",
") 	c #CA3F3D",
"! 	c #CD504F",
"~ 	c #CE5250",
"{ 	c #CA4140",
"] 	c #C2100F",
"^ 	c #C41C1B",
"/ 	c #D06160",
"( 	c #CE5452",
"_ 	c #C10A09",
": 	c #D05E5C",
"< 	c #DB9A96",
"[ 	c #E1BCB8",
"} 	c #E4C9C5",
"| 	c #E4CAC5",
"1 	c #E4CBC7",
"2 	c #E4CCC8",
"3 	c #E4CCC9",
"4 	c #E3C8C3",
"5 	c #E0BDB9",
"6 	c #C52221",
"7 	c #CE5553",
"8 	c #C31515",
"9 	c #C83433",
"0 	c #D88D8A",
"a 	c #E2C1BC",
"b 	c #E3C9C4",
"c 	c #E4CBC6",
"d 	c #E5CBC7",
"e 	c #E2C8C4",
"f 	c #E2CAC6",
"g 	c #E6D0CD",
"h 	c #E3CBC6",
"i 	c #E3C4C0",
"j 	c #D99592",
"k 	c #C93433",
"l 	c #C21414",
"m 	c #C00404",
"n 	c #C31919",
"o 	c #D88987",
"p 	c #E3C6C1",
"q 	c #E4CECA",
"r 	c #E4CFCB",
"s 	c #E5CDC9",
"t 	c #E3CBC7",
"u 	c #E3CAC4",
"v 	c #E2C8C3",
"w 	c #E3C9C5",
"x 	c #E4CAC6",
"y 	c #E2C9C4",
"z 	c #E6D1CE",
"A 	c #E5CCC8",
"B 	c #E5D0CD",
"C 	c #E2C7C2",
"D 	c #C31818",
"E 	c #C00303",
"F 	c #C93B3A",
"G 	c #BF0201",
"H 	c #CC4746",
"I 	c #E5D1CE",
"J 	c #E6D3D1",
"K 	c #E4CECB",
"L 	c #E3CCC8",
"M 	c #E4CDC9",
"N 	c #E5CECA",
"O 	c #E5CFCB",
"P 	c #DFB9B5",
"Q 	c #CA3D3B",
"R 	c #C00606",
"S 	c #E1C5C0",
"T 	c #E3CAC5",
"U 	c #E6D2CF",
"V 	c #E5D2D0",
"W 	c #E6D4D2",
"X 	c #E6D2D0",
"Y 	c #E5D1CF",
"Z 	c #E3CAC6",
"` 	c #E1C6C1",
" .	c #E3C9C3",
"..	c #E1C6C0",
"+.	c #E3CBC8",
"@.	c #E3CCC9",
"#.	c #D06664",
"$.	c #CE5351",
"%.	c #E1C7C2",
"&.	c #E4CFCC",
"*.	c #E4D0CD",
"=.	c #E0C2BD",
"-.	c #E2C6C0",
";.	c #E3CDC9",
">.	c #E2C9C5",
",.	c #E2C6C1",
"'.	c #CE5251",
").	c #CC4947",
"!.	c #E1C6C2",
"~.	c #E5D1CD",
"{.	c #E3CDCA",
"].	c #DFBAB4",
"^.	c #E1C4BE",
"/.	c #C00403",
"(.	c #E1BFBC",
"_.	c #C00707",
":.	c #BF0000",
"<.	c #D57D7A",
"[.	c #E4C9C4",
"}.	c #E4C9C3",
"|.	c #E1C6BF",
"1.	c #E4CDCA",
"2.	c #E5CDCA",
"3.	c #C51F1F",
"4.	c #C72D2C",
"5.	c #C52524",
"6.	c #C72F2E",
"7.	c #E5CBC6",
"8.	c #E1C8C4",
"9.	c #D78683",
"0.	c #E3CAC8",
"a.	c #C31615",
"b.	c #E2C7C1",
"c.	c #E0C3BC",
"d.	c #C10A0A",
"e.	c #CF5C5A",
"f.	c #D8908C",
"g.	c #E3CECB",
"h.	c #CF5755",
"i.	c #D26A68",
"j.	c #D37573",
"k.	c #D57977",
"l.	c #D36E6B",
"m.	c #E0B8B4",
"n.	c #E2C8C2",
"o.	c #D88B87",
"p.	c #D06462",
"q.	c #C52121",
"r.	c #E0C1BB",
"s.	c #DFB3AF",
"t.	c #DFB6B2",
"u.	c #DEAAA7",
"v.	c #DCA7A3",
"w.	c #DFB0AC",
"x.	c #E2C9C6",
"y.	c #E1C5BF",
"z.	c #E1C5BE",
"A.	c #C52322",
"B.	c #E5CECB",
"C.	c #E0BBB7",
"D.	c #E4C9C2",
"E.	c #DFC4BD",
"F.	c #E3C8C2",
"G.	c #E5D3D0",
"H.	c #D99794",
"I.	c #C83231",
"J.	c #C62928",
"K.	c #E6D6D4",
"L.	c #DCA19E",
"M.	c #E3CDCB",
"N.	c #DFC5BF",
"O.	c #E6D0CC",
"P.	c #D37270",
"Q.	c #E2CBC8",
"R.	c #E0C7C2",
"S.	c #CB4342",
"T.	c #C21313",
"U.	c #E2C5BF",
"V.	c #DFC2BC",
"W.	c #C62A29",
"X.	c #E2CCC7",
"Y.	c #E1CCC8",
"Z.	c #C10C0C",
"`.	c #E3C7C0",
" +	c #DFC0BB",
".+	c #E4D2D0",
"++	c #BF0303",
"@+	c #E1C8C3",
"#+	c #E3CECA",
"$+	c #E2CDC9",
"%+	c #C00505",
"&+	c #DEADA9",
"*+	c #D67F7D",
"=+	c #E3D0CE",
"-+	c #CD514F",
";+	c #DCA3A0",
">+	c #DB9E9B",
",+	c #D99B97",
"'+	c #CD4F4D",
")+	c #E4CFCA",
"!+	c #E5CFCC",
"~+	c #E3C7C2",
"{+	c #E6D4D1",
"]+	c #E6CECB",
"^+	c #E1C3BF",
"/+	c #D68280",
"(+	c #E4C8C3",
"_+	c #D88C89",
":+	c #E4C7C1",
"<+	c #CD4A49",
"[+	c #E4D1CE",
"}+	c #E2C2BE",
"|+	c #DDAFAA",
"1+	c #E5CCC7",
"2+	c #E6D3D0",
"3+	c #E2C4BD",
"4+	c #E1C3BC",
"5+	c #E8D3D0",
"6+	c #E3C5C0",
"7+	c #E2C5BE",
"8+	c #E5CDC8",
"9+	c #DFB4B1",
"0+	c #E7D2CF",
"a+	c #E6D1CD",
"b+	c #E6D0CE",
"c+	c #E2C4BF",
"d+	c #E5CBC5",
"e+	c #E6D1CF",
"f+	c #E2C1BE",
"g+	c #E5D0CC",
"h+	c #E5CFCD",
"i+	c #E4CBC8",
"j+	c #E5CEC9",
"k+	c #C52220",
"                              + @ # $ % % & * @ =                               ",
"                        - ; > % , ' ) ! ~ { ' ] % > ^ /                         ",
"                    ( _ % * : < [ } | 1 2 3 4 5 < : 6 % _ 7                     ",
"                  8 > 9 0 a b c | d e } f f b g 2 h i j k > l                   ",
"              ~ m n o p c q r s t u v } w x y z 1 1 A B C 0 D E ~               ",
"            F G H 5 e h B I J z K b C 4 } | t z L M M N u O P H > F             ",
"          Q R + S T 4 O U V W X Y Z `  .S ..2 t Z K L +.e @.T a #.R F           ",
"        $.% + 4 T b %.&.*.V V X Y K T =.-.S ;.Z L q q >.C 2 v -.,.+ % '.        ",
"        m ).!.C v v >.I B ~.K {.I I M ( 9 ].{.b @.I &.e 4 1 x ^.v 4 )./.        ",
"      8 n (.L C v C t U B +.[ 3 M &.P _.:.<.f v B B N [.v }.w |.1 M [ D l       ",
"    ( > 0 1.2.w b y Y &.< 8 :._.3.4.5.:.:.8 4.6.6.6.k j 7.w 8.S 1 O c 9.> (     ",
"    _ k 0.K L T C 2 Y i a.:.:.:.:.:.:.:.:.:.:.:.:.:.:.: e %.2 b.T M v c.6.d.    ",
"  e.% f.K g.M 2.| B V (.5.] k h.i.j.i.m :.'.9.o k.l.j.m.v ..A n.2 f e ` o.% p.  ",
"  ; q.r.{.&.t K K V &.f r.s.t.u.v.v.j R :.p.v.u.w.a x.w | C 1 ` +.>.y.z.4 A.^   ",
"  > - v t &.1 L Y I B.j.6 _ R m E E E :.:.% /.m R _ 3.e.C.D.Z C 3 2 E.F.G.#.>   ",
"+ % H.b t {.y t &.&.1 9 :.:._.$ ] ^ ; > :.3.I.J.a.R :.:.e.4 4 y t x S %.K.L.% i.",
"@ , t.w +.M.L t {.q Z p.:.3.m.&.q N.w._.:.o.O.Z Z j :.:.P.4 ,.+.Q.R.,.y K.i ] S.",
"q.J.R  .Z K @.t t 8.s 9.:.T.~ h.h.e.h.E :.) h.~ ).Q :.E u.` U.f 1.t V.*.K.G.W.q.",
"& { X.S v t Y.1.Z v K L.:.:.:.:.:.:.:.:.:.:.:.:.:.:.:.Z.m.n.`.Q.@.C  +W .+V S.$ ",
"++~ &.@+` x.L #+$+q &.t.%+& H.v.&+t.H.E :.*+5 t.v.i.:.a.C.4 ^.@.L S c.K.=+Y '.++",
"E -+#+K C Z L @.{.&.B  +a.%+L.P &+L.k.:.:.l.;+>+,+'+:.I.v v U.Q.>.v h K.Y Y $.E ",
"& @ )+B -.w @.&.g.g s +.4.:.R :.:.:.:.:.:.:.:.:.:.:.:.= x @+U.t 1 `.U .+J !+S.& ",
"q.J.1.&.y b.2 @.t O f M j.:.:._ ^ 4.W.:.:.A.* & :.:.5.s.| ~+S ;...V.{+W J {.J.* ",
"{ , 5 B L %.Z t Q.K ]+M ^+P./+t.(+3 < :.:.9.a s.,+H.P ..y.y.n.Z [.-.W Y B a , ) ",
"+ % ,+3 L h y >.t 1.3 t [ u.,+_+k.l.).:.:.) p.l.9.H.v.~+:+v [.>.~+y.G.~.B ,+% p.",
"  > - {.Q.q S j.Q ' D R :.:.:.:.:.:.:.:.:.:.:.:.:.:.:.E n 6.<+p.k.H.1.[+3 / >   ",
"  ; * }+M B.j E :.:.:.:.> $ 5.{ h.+ ! :.:.6.9 ^ Z.:.:.:.:.:.:.:.:.% u.B i 6 ;   ",
"  : % 0 q t h.:.:.:.l ! _+|+^.~+7.y H.:.:./+ .1+m.0 / J.++:.:.:.:.-+2+g f.% e.  ",
"    _ I.d s < A.4.k.P ^.3+4+c.^.4 C ;+E :.o.5+U O b.2 ~+>+H % :.4.6+W 3 k _     ",
"    -+> o.t 1.p r.7+-.3+`.8+^.r.-.7.9+_.% >+2+0+U O B 4 8.,.;+9.[ 2+&.0 > !     ",
"      8 n 5 2 O L 3+3+O N O c :+^.8+y W.3.s 2+I {+0+K  .[.7.N A ..K.i D 8       ",
"        m ).4 z ;.8+N U U ~.a+u 4+[.v s.t.{+r b+2+O B T ]+T B.A F.J <+m         ",
"        ~ % i.2 B O U I B z a+K 7+^.4 c+a+B 5+O.2+!+!+| A x !+C U.P.% ~         ",
"          F R l.b+I [+V U B O &.-.4+4+n.K.[+1.O z g N d+O d e+C + R Q           ",
"            Q % <+f+[+B.5+!+B O.8+A  .g+X a+c s h+5+M (+N O.}+).G F             ",
"              $.m n 0 1 g M O.r g+U I z !+i+c j+t X 1.2 } _+n /.h.              ",
"                  8 > 9 f.p K K r B I &.q L T 1+| g ^+0 9 > a.                  ",
"                    $.d.% q./ L.f+g B L N h | C.< / k+% _ 7                     ",
"                        - ^ > % ] J.{ ! '.@ ' , % > ^ -                         ",
"                              i.S.q.& % % & 3.) #.                              "};
