/* XPM */
static char * Red5_xpm[] = {
"40 40 233 2",
"  	c None",
". 	c #000000",
"+ 	c #D06664",
"@ 	c #CA3F3E",
"# 	c #C52120",
"$ 	c #C10D0D",
"% 	c #BF0202",
"& 	c #C10E0D",
"* 	c #D26A67",
"= 	c #D05F5D",
"- 	c #C41B1A",
"; 	c #BF0101",
"> 	c #C20F0F",
", 	c #C62726",
"' 	c #CD504E",
") 	c #CD5150",
"! 	c #CA4140",
"~ 	c #C2100F",
"{ 	c #C41B1B",
"] 	c #D06160",
"^ 	c #CE5452",
"/ 	c #C10A09",
"( 	c #CF5E5C",
"_ 	c #DA9996",
": 	c #E1BBB8",
"< 	c #E4C9C5",
"[ 	c #E4CAC5",
"} 	c #E4CBC7",
"| 	c #E4CCC8",
"1 	c #E4CCC9",
"2 	c #E3C8C3",
"3 	c #E0BCB9",
"4 	c #DB9C99",
"5 	c #C52221",
"6 	c #CE5553",
"7 	c #C31515",
"8 	c #C83332",
"9 	c #D88D8A",
"0 	c #E2C1BD",
"a 	c #E3C9C4",
"b 	c #E4CBC6",
"c 	c #E2C8C4",
"d 	c #E3CAC6",
"e 	c #E6D0CD",
"f 	c #E3CBC6",
"g 	c #E2C4C0",
"h 	c #D99390",
"i 	c #C21414",
"j 	c #CD5250",
"k 	c #C00404",
"l 	c #C31919",
"m 	c #D78785",
"n 	c #E3C6C1",
"o 	c #E4CECA",
"p 	c #E4CFCB",
"q 	c #E5CDC9",
"r 	c #E3CBC7",
"s 	c #E3CAC4",
"t 	c #E2C8C3",
"u 	c #E3C9C5",
"v 	c #E4CAC6",
"w 	c #E2C9C4",
"x 	c #E6D1CE",
"y 	c #E5D0CD",
"z 	c #E2C7C2",
"A 	c #C31817",
"B 	c #C00303",
"C 	c #C93B3A",
"D 	c #BF0201",
"E 	c #CB4745",
"F 	c #E5D1CE",
"G 	c #E6D3D1",
"H 	c #E4CECB",
"I 	c #E3CCC8",
"J 	c #E4CDC9",
"K 	c #E5CECA",
"L 	c #E5CFCB",
"M 	c #E0BAB6",
"N 	c #C00505",
"O 	c #D16866",
"P 	c #E1C5C0",
"Q 	c #E3CAC5",
"R 	c #E6D2CF",
"S 	c #E5D2D0",
"T 	c #E6D4D1",
"U 	c #E6D2D0",
"V 	c #E5D1CF",
"W 	c #E1C6C1",
"X 	c #E3C9C3",
"Y 	c #E3CBC8",
"Z 	c #E3CCC9",
"` 	c #E1C1BC",
" .	c #C00606",
"..	c #CE5352",
"+.	c #E1C7C2",
"@.	c #E4CFCC",
"#.	c #E4D0CD",
"$.	c #E1C4BE",
"%.	c #E3CDC9",
"&.	c #E2C9C5",
"*.	c #E2C6C0",
"=.	c #E2C6C1",
"-.	c #CC4A48",
";.	c #E1C6C2",
">.	c #E2C9C3",
",.	c #DDABA7",
"'.	c #E5D1CD",
").	c #E2CDCA",
"!.	c #E0C4BD",
"~.	c #CD4D4C",
"{.	c #DDA6A3",
"].	c #C00403",
"^.	c #E1BFBB",
"/.	c #DB9D9A",
"(.	c #C00707",
"_.	c #C10909",
":.	c #DA9A97",
"<.	c #D0615E",
"[.	c #BF0000",
"}.	c #C31A19",
"|.	c #E4C9C4",
"1.	c #E4C9C3",
"2.	c #E1C5BF",
"3.	c #E4CDCA",
"4.	c #D37370",
"5.	c #E3D0CE",
"6.	c #E5D0CC",
"7.	c #CA3E3D",
"8.	c #DDA8A5",
"9.	c #E5CBC6",
"0.	c #D6807E",
"a.	c #C10B0B",
"b.	c #C31616",
"c.	c #DFB5B1",
"d.	c #DFB3AE",
"e.	c #DEAFAB",
"f.	c #E2C7C1",
"g.	c #E0C3BC",
"h.	c #C72E2D",
"i.	c #C10A0A",
"j.	c #D88F8C",
"k.	c #E3CECB",
"l.	c #D99694",
"m.	c #D6827F",
"n.	c #E5CFCD",
"o.	c #D88B89",
"p.	c #D06462",
"q.	c #C52121",
"r.	c #E0C1BC",
"s.	c #E3CDCA",
"t.	c #DEB1AE",
"u.	c #DCA3A0",
"v.	c #E2C3BE",
"w.	c #C51F1F",
"x.	c #C21111",
"y.	c #E0C5BF",
"z.	c #E1C5BE",
"A.	c #DFB0AC",
"B.	c #E5CCC7",
"C.	c #DFC4BE",
"D.	c #E4D3D1",
"E.	c #C62928",
"F.	c #BF0303",
"G.	c #D47976",
"H.	c #E1C5C1",
"I.	c #E6D5D4",
"J.	c #D26C6A",
"K.	c #DFB7B3",
"L.	c #E1C3C1",
"M.	c #DEAEAA",
"N.	c #E2C3BF",
"O.	c #E1C3BE",
"P.	c #C93635",
"Q.	c #E2CBC8",
"R.	c #E0C7C2",
"S.	c #E1C9C4",
"T.	c #CB4241",
"U.	c #E4C9C6",
"V.	c #E2CCC7",
"W.	c #DFC1BB",
"X.	c #E1C8C3",
"Y.	c #E2C9C6",
"Z.	c #E2CAC7",
"`.	c #E3CECA",
" +	c #E3C3BF",
".+	c #C62423",
"++	c #E2C7C3",
"@+	c #E4D1CE",
"#+	c #E4CFCA",
"$+	c #E4CCC7",
"%+	c #E6D1CD",
"&+	c #DB9F9C",
"*+	c #DCA19E",
"=+	c #E3C7C0",
"-+	c #E6D3CF",
";+	c #E5CFCC",
">+	c #E6CFCB",
",+	c #E5CECB",
"'+	c #DFC2BB",
")+	c #E1C2BC",
"!+	c #E2C8C2",
"~+	c #E3C6C0",
"{+	c #D36F6D",
"]+	c #E2C4BE",
"^+	c #E0C1BA",
"/+	c #E2C5BF",
"(+	c #DEBEB8",
"_+	c #E4C8C1",
":+	c #E1C9C5",
"<+	c #E3C7C2",
"[+	c #E1C7C1",
"}+	c #DFC0B9",
"|+	c #E2CAC5",
"1+	c #D57E7C",
"2+	c #DEB9B4",
"3+	c #CF5A58",
"4+	c #E2C4BD",
"5+	c #E1C3BC",
"6+	c #E1C4BD",
"7+	c #E2C7C0",
"8+	c #E3C5BE",
"9+	c #E6CDC9",
"0+	c #E7D3D0",
"a+	c #E6D3D0",
"b+	c #E6D2CE",
"c+	c #E3C9C2",
"d+	c #E6D0CE",
"e+	c #E6D0CC",
"f+	c #E6D1CF",
"g+	c #E4C8C3",
"h+	c #E4CAC7",
"i+	c #E4CBC8",
"j+	c #E5CEC9",
"                              + @ # $ % % & # @ *                               ",
"                        = - ; % > , @ ' ) ! , ~ % ; { ]                         ",
"                    ^ / % # ( _ : < [ } | 1 2 3 4 = 5 % / 6                     ",
"                  7 ; 8 9 0 a b [ } c < d d a e | f g h 8 ; i                   ",
"              j k l m n b o p q r s t < u v w x } } | y z 9 A B j               ",
"            C D E 3 c f y F G x H a z 2 < [ r x I J J K s L M E ; C             ",
"          C N O P Q 2 L R S T U V d W X P P | r d H I Y c Z Q ` +  .C           ",
"        ..% O 2 Q a +.@.#.S S U V H Q $.n P %.d I o o &.z | t *.=.O % j         ",
"        k -.;.z >.t &.,.,.'.H ).F F J !.4 ~.{.a Z F @.c 2 } v $.t a -.].        ",
"      7 l ^.I z t z /.(._.:.J 1 J @.H t <.[.}.3 y y K |.t 1.u 2.} J 3 A i       ",
"    ^ ; 9 3.K u a w 4.[.[.( Q d 1 y 5.6.7.[.[.8.F e | Q 9.u c P } L b m ; ^     ",
"    / 8 Y H I Q z | 0.[.[.4.| d f 1 #.v a.[.b.{.M M c.d.e.d.0 f.Q J t g.h.i.    ",
"  ( % j.H k.J K [ y l.[.[.9 n j m.&.n.0.[.[.[.; i.i.k [.[._.b.m.| d c W o.% p.  ",
"  }.q.r.s.@.d t.c.S u.[.[./.4 [.k h v.w.[.[.[  .- h.7.! x.[.[.x.M &.y.z.2 5 {   ",
"  ; = t r @./.(.$ c.A.[.[.u.4.[.N _ 6 [.x.4.{.3 =.d B.a u.N [.k ,.| C.2 D.+ ;   ",
"O % l.a r s.4 ; [.m e.[.[.{.E.F.G.4.B % m.f x Z J q v 1.B., [.b.H.v P +.I.u.% J.",
"! > K.u Y s.L.{ [.m.M.[.[.J.a.G.3 $ (.J.<.* l.e.K.: N.O.a P.[.h.Q.R.=.S.I.L.~ T.",
"q.E.R.X d H Z 6 [.o.e.[.[.u.t.L U.m.{.:.[.[.[.% i.a.+ g.a w.[.T.3.d g.#.I.D.E.q.",
"& ! V.P t r Q.u.N 4 e.[.B c.r %.d H g.G.[.- 6 ^ - [.C C.K.(.[.+ Z z W.T D.S T.$ ",
"F.) @.X.W Y.I %.-.c.{.[.$ 3 1 Q.Q Z.+.* [.p.r P p.[.@ y.o.; % _ I P g.I.5.V j F.",
"B ) `.H z d I Z s.@.h [.A  +I Y.%.Y o ] [..+* + 5 [.* =...[..+++&.t f I.@+5...B ",
"& @ #+y *.u Z @.k.e 4.[., &.d $+I e %+= [.[.[.[.[.N &+f.' 5 *+r } =+-+D.G ;+T.> ",
"q.E.3.@.w f.| Z r L -.[.T.c.++| >+,+K <.[.~ T.' j m.P y.v.v.P %.P '+T I.G s.E.# ",
"! > 3 y I +.d r Q.Y b.[.' ~ <.K.q 1 L J.[.] P )+g.W.$.P 2.2.!+d |.~+T @+y 0 > 7.",
"O % :.1 I f w &.r o.[.% :.! [.a.' *+| {+[.-.]+^+/+W.(+[ _+t |.:+<+2.D.'.y 4 % p.",
"  ; = s.Q.o [+a c.A [.}.^.t.i [.[.; m m.[.x.A.^+}+(+)+K 2.|+v d |.!+S @+1 ] ;   ",
"  - # O.J ,+B.8.E.[.[.( =.P _ .+8 1+g 8.; [.8 &+2+^+g.K P t s b n {.8.y g 5 }.  ",
"  ( % 9 o r h > [.[.& M.$.)+2.<+9.w r b ~.; [.% }.C 3+4.m.G.J.~..+k x.e j.% (   ",
"    / 8 } ^.b.[.[.[.{+O.4+5+g.$.2 z w q ` 4.i [.[.[.[.[.[.[.[.[.[.[.7.1 P./     ",
"    ) ; o.e.k [.; 3+]+4+=+B.6+^+~+9.Q 9.W.7+g 0.8 ; [.[.[.[.[.[.[.; l.9 ; '     ",
"      7 l 3 h O /.4+8+>+K L b _+$.9+|+n 4+0+a+F T : 1+-., a.(  .~ {+0 A 7       ",
"        k -.a x %.q K R b+'.%+s 5+|.>.2.c+T p d+0+L y Q ,+g M A.3 G -.k         ",
"        j % * | y L -+F y x %+H ]+$.2 g %+y 0+e+a+;+;+[ | v ;+z /+{+% j         ",
"          C  .J.d+F @+S R y L @.*.5+5+!+I.5.3.L x e K 9.L } f+z O  .C           ",
"            C % -.0 5.,+0+;+y e+q | X 6.U %+b q n.0+J g+K e+ +-.D C             ",
"              ..k l 9 h+e J e+p 6.R F x ;+i+b j+r U 3.| < o.l ].6               ",
"                  7 ; 8 j.n H H p y F @.o I Q B.[ e L.9 8 ; b.                  ",
"                    ..i.% q.] &+0 e y I K f [ : :.] 5 % / 6                     ",
"                        = - ; % ~ E.T.' ..@ , > % ; - =                         ",
"                              * T.q.& % % & w.7.+                               "};
