/* XPM */
static char * Red6_xpm[] = {
"40 40 233 2",
"  	c None",
". 	c #000000",
"+ 	c #D16765",
"@ 	c #CA403E",
"# 	c #C52121",
"$ 	c #C10E0D",
"% 	c #BF0202",
"& 	c #C5201F",
"* 	c #D26967",
"= 	c #D05F5D",
"- 	c #C31A1A",
"; 	c #BF0101",
"> 	c #C20F0F",
", 	c #C62827",
"' 	c #CD504F",
") 	c #CE5250",
"! 	c #CB4140",
"~ 	c #C2100F",
"{ 	c #C41C1B",
"] 	c #D06260",
"^ 	c #CE5553",
"/ 	c #C10A09",
"( 	c #CF5E5B",
"_ 	c #DA9A96",
": 	c #E2BCB8",
"< 	c #E4C9C5",
"[ 	c #E4CAC5",
"} 	c #E4CBC7",
"| 	c #E4CCC8",
"1 	c #E4CCC9",
"2 	c #E3C8C3",
"3 	c #E1BDB9",
"4 	c #DB9C99",
"5 	c #C31515",
"6 	c #C83231",
"7 	c #D98D8B",
"8 	c #E2C1BC",
"9 	c #E3C9C4",
"0 	c #E4CBC6",
"a 	c #E5CBC7",
"b 	c #E2C8C4",
"c 	c #E3CAC6",
"d 	c #E6D0CD",
"e 	c #E3CBC6",
"f 	c #E2C4C0",
"g 	c #D9918E",
"h 	c #C93433",
"i 	c #C21414",
"j 	c #CD5250",
"k 	c #C00404",
"l 	c #C41918",
"m 	c #D88885",
"n 	c #E2C6C1",
"o 	c #E4CECA",
"p 	c #E4CFCB",
"q 	c #E5CDC9",
"r 	c #E3CBC7",
"s 	c #E3CAC4",
"t 	c #E2C8C3",
"u 	c #E3C9C5",
"v 	c #E4CAC6",
"w 	c #E2C9C4",
"x 	c #E6D1CE",
"y 	c #E5CCC8",
"z 	c #E5D0CD",
"A 	c #E2C7C2",
"B 	c #D88C8A",
"C 	c #C31717",
"D 	c #C00303",
"E 	c #C93A39",
"F 	c #BF0201",
"G 	c #CB4645",
"H 	c #E5D0CE",
"I 	c #E5D1CE",
"J 	c #E6D3D1",
"K 	c #E4CECB",
"L 	c #E3CCC8",
"M 	c #E4CDC9",
"N 	c #E5CECA",
"O 	c #E5CFCB",
"P 	c #E0BAB5",
"Q 	c #C93C3B",
"R 	c #C00606",
"S 	c #E1C5C0",
"T 	c #E3CAC5",
"U 	c #E6D2CF",
"V 	c #E5D2D0",
"W 	c #E6D4D2",
"X 	c #E6D2D0",
"Y 	c #E5D1CF",
"Z 	c #E1C6C1",
"` 	c #E3C9C3",
" .	c #E1C6C0",
"..	c #E3CBC8",
"+.	c #E3CCC9",
"@.	c #E1C1BC",
"#.	c #D06664",
"$.	c #CD5351",
"%.	c #E1C7C2",
"&.	c #E4CFCC",
"*.	c #E4D0CD",
"=.	c #E1C4BE",
"-.	c #E3CDC9",
";.	c #E2C9C5",
">.	c #E2C6C0",
",.	c #CC4847",
"'.	c #E1C6C2",
").	c #E5D1CD",
"!.	c #E3CDCA",
"~.	c #E0C4BD",
"{.	c #E3C8C4",
"].	c #DFC0BB",
"^.	c #CE5957",
"/.	c #E4C9C4",
"(.	c #E4C9C3",
"_.	c #E1C6BF",
":.	c #DFBCB8",
"<.	c #E4CDCA",
"[.	c #E5CDCA",
"}.	c #D4716F",
"|.	c #BF0000",
"1.	c #E5CBC6",
"2.	c #E1C8C4",
"3.	c #D78683",
"4.	c #E3CAC8",
"5.	c #E4D1CF",
"6.	c #E2C0BC",
"7.	c #C7302E",
"8.	c #BF0303",
"9.	c #E2CCC9",
"0.	c #E2C7C1",
"a.	c #DFC2BC",
"b.	c #C10A0A",
"c.	c #E3CECB",
"d.	c #D37674",
"e.	c #E2C8C2",
"f.	c #D88B87",
"g.	c #D16462",
"h.	c #E5CFCC",
"i.	c #E5CECB",
"j.	c #E6CFCC",
"k.	c #E2C9C6",
"l.	c #E0C5BF",
"m.	c #C52222",
"n.	c #E2CBC7",
"o.	c #E3C7C2",
"p.	c #E2CAC7",
"q.	c #E5CCC7",
"r.	c #E4C9C2",
"s.	c #DFC4BE",
"t.	c #E3C8C2",
"u.	c #E5D3D0",
"v.	c #D16664",
"w.	c #DA9794",
"x.	c #C93E3D",
"y.	c #D6827F",
"z.	c #D57F7C",
"A.	c #D36D6B",
"B.	c #E5CAC5",
"C.	c #E6D6D4",
"D.	c #DCA29E",
"E.	c #DFB8B4",
"F.	c #E3CDCB",
"G.	c #C00808",
"H.	c #DFB5B0",
"I.	c #E2CBC8",
"J.	c #E0C7C2",
"K.	c #C21010",
"L.	c #CB4342",
"M.	c #C62928",
"N.	c #DEAFAA",
"O.	c #C52423",
"P.	c #C83534",
"Q.	c #BF0100",
"R.	c #CC4A49",
"S.	c #E2C5BF",
"T.	c #E3CAC7",
"U.	c #CA4140",
"V.	c #E1CCC8",
"W.	c #E4CECC",
"X.	c #E2C2BD",
"Y.	c #C21313",
"Z.	c #E0BBB7",
"`.	c #E3C6C3",
" +	c #E5D0CC",
".+	c #E3C6C0",
"++	c #E4D2D0",
"@+	c #E1C8C3",
"#+	c #E2CCC8",
"$+	c #E3CECA",
"%+	c #CD514F",
"&+	c #E0C4BF",
"*+	c #E0C3BD",
"=+	c #E1C5BF",
"-+	c #CB3F3D",
";+	c #E6D1CD",
">+	c #DEACA8",
",+	c #DCA7A3",
"'+	c #DB9F9C",
")+	c #C10C0C",
"!+	c #D57D79",
"~+	c #D67F7D",
"{+	c #C72C2B",
"]+	c #E3C9C6",
"^+	c #DFB2AE",
"/+	c #E0BEB9",
"(+	c #E1C3BC",
"_+	c #E4D1CE",
":+	c #E4CCC7",
"<+	c #C10908",
"[+	c #E0C2BB",
"}+	c #E7D3D1",
"|+	c #E3C5C1",
"1+	c #E5CDC8",
"2+	c #E2C5BE",
"3+	c #E2C6BF",
"4+	c #CC4D4B",
"5+	c #E0C1BB",
"6+	c #E3C7C1",
"7+	c #E7D3D0",
"8+	c #E2C4BE",
"9+	c #E2CAC5",
"0+	c #E6D3D0",
"a+	c #E6CCC8",
"b+	c #E3C1BF",
"c+	c #E4CBC8",
"d+	c #E6D0CE",
"e+	c #E2C4BF",
"f+	c #E6D0CC",
"g+	c #E5CBC5",
"h+	c #E5CFCD",
"i+	c #E5CEC9",
"j+	c #E4CAC4",
"                              + @ # $ % % $ & @ *                               ",
"                        = - ; % > , @ ' ) ! , ~ % ; { ]                         ",
"                    ^ / % # ( _ : < [ } | 1 2 3 4 = # % / ^                     ",
"                  5 ; 6 7 8 9 0 [ a b < c c 9 d | e f g h ; i                   ",
"              j k l m n 0 o p q r s t < u v w x } } y z A B C D )               ",
"            E F G 3 b e H I J x K 9 A 2 < [ r x L M M N s O P G ; E             ",
"          Q R + S T 2 O U V W X Y c Z ` S  .| r c K L ..b +.T @.#.R E           ",
"        $.% * 2 T 9 %.&.*.V V X Y K T =.n S -.c L o o ;.A | t >.n + % )         ",
"        k ,.'.A t t ;.I z ).K !.I I M ~.P >.!.9 +.I &.b 2 } v =.t {.,.k         ",
"      5 l ].L A t A r V z K M 1 M &.K ^./ ,.'.t z z N /.t (.u _.} M :.l i       ",
"    ^ ; 7 <.[.u 9 w Y &.+.c T c 1 q }.% |.; m L I d | T 1.u 2.S } O 0 3.; ^     ",
"    / h 4.K L T A | 5.z L [ | 6.3.7.; |.|.8.m z 9.M } a b %.| 0.T M t a.7.b.    ",
"  ( % 7 K c.M [.[ z V -.@.d.G { |.|.|.$ E 7 2 H L +.c 9 t  .y e.| c b Z f.% g.  ",
"  - # @.!.&.r K K V &.c ^ ; |.|.{ j 7 3 v v L h.i.j.k.u [ A } Z ..;.l.=.2 m.{   ",
"  ; = t n.&.} L Y I h.].l |.|.^.o.t r q [ v !.p.....q.9 [ r.c A 1 | s.t.u.v.;   ",
"+ % w.9 r !.w r &.&.| p.x.|.|.y.g y.z.z.* A.}.g.g.* }.f.B.2 2 w n.v S %.C.D.% A.",
"! > E.u ..F.L r !.o c &.3.|.|.|.|.|.|.|.|.|.|.|.|.|.|.G.H.2 n ..I.J.n w C.f K.L.",
"# M.J.` c K 9.r r 2.q z N.k |.F K.{ O.O.P.O.Q.|.D ; ; R.n Z S.c <.T.a.*.C.u.M.# ",
"$ U.n.S t n.V.<.c t K W.X.Y.|.+ Z.`.a.S  +3 $ |.L._ f.:.c e..+I.+.A ].W ++V L.$ ",
"8.) &.@+Z k.#+$+-.o &.+.-., |.g.T p.%.Z I ].Y.|.%+Z A &+Z 2 =.+.L S *+C.5.Y $.8.",
"D j $+K A c #++.!.&.z ;.1 L.|.' -...o N j.P b.|.( =+s.n t t S.I.;.t e C.5.5.$.D ",
"$ @ o z >.u +.&.c.d q !.L ] |.-+L d ;+ +| >+|.|.g.*+S.0.v @+S.r } .+U ++J h.L.$ ",
"# M.<.&.w 0.| +.n.O p.M | g.|.M._ 7 f.f.f.v.|.|.^.,+H.Z.B.o.S -  .a.W W J !.M.# ",
"! > 3 z L %.;.'+d.^.! 7.- / |.|.|.|.|.|.|.|.|.|.|.R )+Y.& h R.v.!+g <.5.z 6.> x.",
"+ % _ 1 L e ~+D |.|.|.|.|.|.5 E $.g.* ] ^.,.{+$ |.|.|.|.|.|.|.|.|.; D.).z 4 % g.",
"  ; = !.I.]+O.|.|.|.R E !+^+Z /+N.{.;.O c A (+H.D.d.) # D |.|.|.|.G z _+1 ] ;   ",
"  - # X.M } 6 |.)+^.>+o.n S '+5 % + ..M :+S A.<+P.N.[+y 4 L.R ; 6 Z.}+z |+# l   ",
"  = % 7 o r 3 g ^+A 2 =.=.'+Y.|.|.^ r :+9 .+7.|.|.7.8 } r.l.D.g 6.1+W d 7 % (   ",
"    / 6 a q N o.n t.S *+4 C |.|.~ D.w q >.(+m R |.; A.0 9 S | | t.;+}+q P./     ",
"    %+; f.r <.[ =.2+3+_ K.|.8.4+,+1.T 1.5+0.U D.# |.R f.2.e.L [ 6+7+&.B ; '     ",
"      5 l 3 | O L 8+H.5 ; {+D.6+=.1+9+n 8+7+0+I a ,.; 5 E.1.N a+ .C.b+l 5       ",
"        k ,.{.x -.1+_ O.~+c+;+s (+/.t =+` }+p d+7+q d.Y.3.T i.a+t.}+R.k         ",
"        ) % * | H O U i.z x ;+K 2+=.2 e+;+z }+f+0+h.h.Z.2 v j.A S.}.% j         ",
"          E R A.d+I _+V U H O &.>.(+(+e.C.H <.O x d N g+O a U A + R Q           ",
"            Q % R.b+H i.7+j.z f+1+y `  +X ;+0 q h+7+M 2 N f+b+,.F Q             ",
"              $.k l B } d M f+p  +U I x h.c+0 i+r X <.| < B l k ^.              ",
"                  5 ; h 7 |+K K p z I &.o L T q.[ d f 7 6 ; 5                   ",
"                    $.b.% # ] '+X.d z L N e j+Z._ ] # % / ^                     ",
"                        = { ; % K.M.! ' ) @ , > % ; { =                         ",
"                              * L.# $ % % $ & -+v.                              "};
